<?xml version="1.0" encoding="utf-8"?>
<!-- Generator: Adobe Illustrator 21.0.2, SVG Export Plug-In . SVG Version: 6.00 Build 0)  -->
<svg version="1.1" id="Layer_1" xmlns="http://www.w3.org/2000/svg" xmlns:xlink="http://www.w3.org/1999/xlink" x="0px" y="0px"
	 viewBox="0 0 24 24" style="enable-background:new 0 0 24 24;" xml:space="preserve">
<style type="text/css">
	.st0{fill:#f80913;}
</style>
<g transform="translate(0,-952.36218)">
	<path class="st0" d="M12,952.5c-6.6,0-11.9,5.3-11.9,11.9s5.3,11.9,11.9,11.9s11.9-5.3,11.9-11.9c0-5.8-4.2-10.6-9.7-11.7
		c-0.3-0.1-0.6,0.1-0.7,0.4c-0.1,0.3,0.1,0.6,0.4,0.7c0,0,0.1,0,0.1,0c5,1,8.8,5.3,8.8,10.6c0,6-4.8,10.8-10.8,10.8
		s-10.8-4.8-10.8-10.8S6,953.5,12,953.5c0.3,0,0.5-0.2,0.5-0.5C12.6,952.7,12.3,952.5,12,952.5C12,952.5,12,952.5,12,952.5z
		 M12,957.9c-3.6,0-6.5,2.9-6.5,6.5c0,3.6,2.9,6.5,6.5,6.5c3.1,0,5.6-2.1,6.3-5c0.1-0.3-0.1-0.6-0.4-0.7s-0.6,0.1-0.7,0.4
		c-0.6,2.4-2.7,4.2-5.3,4.2c-3,0-5.4-2.4-5.4-5.4c0-3,2.4-5.4,5.4-5.4c1.3,0,2.5,0.5,3.4,1.2c0.2,0.2,0.6,0.2,0.8-0.1
		c0.2-0.2,0.2-0.6-0.1-0.8c0,0,0,0,0,0C15,958.4,13.6,957.9,12,957.9z M17.9,962.7c-0.1,0-0.2,0.1-0.3,0.1l-1.9,1.8
		c-0.2,0.2-0.2,0.5,0,0.8c0.2,0.2,0.5,0.2,0.8,0l0,0L18,964l1.5,1.5c0.2,0.2,0.6,0.2,0.8,0c0.2-0.2,0.2-0.6,0-0.8l0,0l-1.9-1.8
		C18.2,962.8,18,962.7,17.9,962.7z"/>
</g>
</svg>
