<?xml version="1.0" encoding="utf-8"?>
<!-- Generator: Adobe Illustrator 20.0.0, SVG Export Plug-In . SVG Version: 6.00 Build 0)  -->
<svg version="1.1" id="Layer_1" xmlns="http://www.w3.org/2000/svg" xmlns:xlink="http://www.w3.org/1999/xlink" x="0px" y="0px"
	 viewBox="0 0 24 24" style="enable-background:new 0 0 24 24;" xml:space="preserve">
<style type="text/css">
	.st0{fill:#f80913;}
</style>
<path class="st0" d="M10,7.6c-5.1,0-9.2,3.2-9.4,7.3c0,0.2,0.1,0.4,0.3,0.5s0.4,0,0.6-0.2c0.7-1.1,2.1-1.7,3.6-1.7
	c2.3,0,4.1,1.4,4.1,3.2c0,2.1-2.7,3.8-5.5,2.9c-0.2-0.1-0.5,0-0.6,0.2S3,20.3,3.2,20.4c1.8,1.5,4.2,2.3,6.8,2.3
	c5.2,0,9.4-3.4,9.4-7.6C19.5,11,15.2,7.6,10,7.6z M10,21.7c-1.6,0-3.1-0.3-4.4-1c2.6-0.2,4.6-2,4.6-4.1c0-2.3-2.3-4.2-5.1-4.2
	c-1.2,0-2.4,0.4-3.3,1c1-2.8,4.2-4.9,8.1-4.9c4.7,0,8.4,2.9,8.4,6.6C18.5,18.8,14.7,21.7,10,21.7z"/>
<path class="st0" d="M9.2,9.2c-0.9,0-1.7,0.8-1.7,1.7c0,0.3,0.2,0.5,0.5,0.5s0.5-0.2,0.5-0.5c0-0.4,0.3-0.7,0.7-0.7s0.7,0.3,0.7,0.7
	c0,0.3,0.2,0.5,0.5,0.5s0.5-0.2,0.5-0.5C10.9,10,10.1,9.2,9.2,9.2z"/>
<path class="st0" d="M12.5,12.6c0.3,0,0.5-0.2,0.5-0.5c0-0.4,0.3-0.7,0.7-0.7s0.7,0.3,0.7,0.7c0,0.3,0.2,0.5,0.5,0.5
	s0.5-0.2,0.5-0.5c0-0.9-0.8-1.7-1.7-1.7S12,11.2,12,12.1C12,12.4,12.2,12.6,12.5,12.6z"/>
<path class="st0" d="M14,15.8c0,0.3,0.2,0.5,0.5,0.5S15,16,15,15.8c0-0.4,0.3-0.7,0.7-0.7c0.4,0,0.7,0.3,0.7,0.7
	c0,0.3,0.2,0.5,0.5,0.5s0.5-0.2,0.5-0.5c0-0.9-0.8-1.7-1.7-1.7C14.8,14.1,14,14.8,14,15.8z"/>
<path class="st0" d="M12.6,17.5c-0.9,0-1.7,0.8-1.7,1.7c0,0.3,0.2,0.5,0.5,0.5s0.5-0.2,0.5-0.5c0-0.4,0.3-0.7,0.7-0.7
	s0.7,0.3,0.7,0.7c0,0.3,0.2,0.5,0.5,0.5s0.5-0.2,0.5-0.5C14.3,18.3,13.5,17.5,12.6,17.5z"/>
<path class="st0" d="M21.9,0.4C21.9,0.3,21.9,0.3,21.9,0.4c-0.1-0.1-0.1-0.1-0.1-0.1c-0.2-0.1-0.5-0.1-0.6,0.1
	c-0.2,0-0.3,0.2-0.2,0.4c0,0.1-0.2,0.5-0.8,1.4c-1.1,1.6-0.5,3.5-0.2,4.2c-0.1,0.1-0.1,0.3-0.1,0.5V9c0,0.8,0.9,1.2,1.5,1.2
	s1.5-0.5,1.5-1.2V6.9c0-0.1,0-0.2-0.1-0.4C24.5,4,22.2,0.8,21.9,0.4L21.9,0.4z M21.3,9.3c-0.2,0-0.5-0.2-0.5-0.2V7.4L21,7.5
	c0.1,0.1,0.2,0.1,0.3,0.1c0.1,0,0.2,0,0.2-0.1l0.3-0.1v1.7C21.8,9.1,21.5,9.3,21.3,9.3z"/>
<path class="st0" d="M22.4,10.3c-0.3,0-0.5,0.3-0.5,0.5c0.1,1.3,0.2,2.9,0.2,4.5c0,3.5-0.3,6-0.6,7.1c-0.3-1.1-0.6-3.6-0.6-7.1
	c0-1.6,0.1-3.1,0.2-4.4c0-0.3-0.2-0.5-0.5-0.5s-0.5,0.2-0.5,0.5c-0.1,1.3-0.2,2.9-0.2,4.5c0,3.2,0.2,8.5,1.6,8.5s1.6-5.4,1.6-8.5
	c0-1.6-0.1-3.2-0.2-4.6C22.9,10.4,22.6,10.2,22.4,10.3z"/>
</svg>
