<?xml version="1.0" encoding="utf-8"?>
<!-- Generator: Adobe Illustrator 20.0.0, SVG Export Plug-In . SVG Version: 6.00 Build 0)  -->
<svg version="1.1" id="Layer_1" xmlns="http://www.w3.org/2000/svg" xmlns:xlink="http://www.w3.org/1999/xlink" x="0px" y="0px"
	 viewBox="0 0 24 24" style="enable-background:new 0 0 24 24;" xml:space="preserve">
<style type="text/css">
	.st0{fill:#f80913;}
</style>
<g>
	<path class="st0" d="M15.2,2.8c-0.2-0.2-0.5-0.2-0.7,0L1.8,15.4c-0.2,0.2-0.2,0.5,0,0.7c0.1,0.1,0.2,0.1,0.4,0.1s0.3,0,0.4-0.1
		L15.2,3.5C15.3,3.3,15.3,3,15.2,2.8z"/>
	<path class="st0" d="M21.9,9.6c-0.2-0.2-0.5-0.2-0.7,0L8.6,22.2c-0.2,0.2-0.2,0.5,0,0.7C8.7,23,8.8,23,8.9,23s0.3,0,0.4-0.1
		l12.6-12.6C22.1,10.1,22.1,9.7,21.9,9.6z"/>
	<path class="st0" d="M12.4,16.8c0.6-0.1,1.3-0.4,1.8-1l0,0c0.1-0.1,0.3-0.2,0.4-0.3c2.1-2.5,2-5.9,1.9-6.8V8.3h-0.4
		c-0.9-0.1-4.2-0.2-6.9,2l0,0l0,0l0,0l0,0c-0.4,0.4-0.7,0.8-0.9,1.3c-1.2,2.3-1.1,4.7-1.1,5.5v0.4h0.4c0.2,0,0.5,0,0.8,0
		C9.4,17.5,10.9,17.4,12.4,16.8z M15.5,9.2c0,1.1-0.1,3.7-1.7,5.6c-0.5,0.4-1.1,0.8-1.7,1c-0.8,0.1-1.6-0.2-2.4-0.9
		c-0.9-0.9-1-2.2-0.4-3.3c0.1-0.2,0.3-0.4,0.4-0.6c0,0,0-0.1,0.1-0.1C11.8,9.3,14.4,9.1,15.5,9.2z M8.3,14.5
		c0.2,0.4,0.4,0.8,0.8,1.1c0.3,0.3,0.7,0.6,1.1,0.8c-0.8,0.1-1.5,0.1-2,0.1C8.2,16,8.2,15.3,8.3,14.5z"/>
	<path class="st0" d="M10.8,13.5c-0.2,0.2-0.5,0.3-0.7,0.3c0.1,0.2,0.2,0.3,0.3,0.4c0.8,0.8,2.1,0.8,2.9,0c0.3-0.3,0.4-0.6,0.5-0.9
		c-0.1,0-0.2-0.1-0.3-0.2c-0.2-0.2-0.2-0.6,0-0.8c0.1-0.1,0.2-0.1,0.3-0.2c-0.1-0.3-0.3-0.6-0.5-0.9c-0.8-0.8-2.1-0.8-2.9,0
		c0,0-0.1,0.1-0.1,0.2c0.2,0.1,0.4,0.1,0.5,0.3C11.3,12.3,11.3,13.1,10.8,13.5z"/>
	<path class="st0" d="M3.7,7.8c0.2-0.5,0.1-1-0.2-1.3C3.3,6.5,3.2,6.4,3,6.4V4h4v2.3c-0.5,0-1.1,0.3-1.7,0.8C5,7.5,4.7,7.9,4.6,8.3
		c-0.2,0.5-0.1,1,0.2,1.2C5,9.8,5.3,9.9,5.5,9.9c0.5,0,1.2-0.3,1.7-0.8S8,7.9,8,7.4c0-0.1,0-0.2-0.1-0.3V3.5V3V1.5
		C8,1.2,7.8,1,7.5,1h-6C1.2,1,1,1.2,1,1.5v2C1,3.8,1.2,4,1.5,4H2v2.5C1.7,6.6,1.4,6.8,1,7.2C0.5,7.7,0.2,8.3,0.2,8.8
		c0,0.3,0.1,0.6,0.3,0.7c0.2,0.2,0.4,0.3,0.7,0.3c0.5,0,1.2-0.3,1.7-0.8C3.3,8.7,3.5,8.2,3.7,7.8z M6.5,8.3c-0.4,0.4-0.8,0.6-1,0.6
		l0,0c0-0.1,0.1-0.5,0.5-1c0.4-0.4,0.8-0.6,1-0.6C7.1,7.4,7,7.8,6.5,8.3z M2,2h5v1H3H2V2z M2.2,8.3c-0.4,0.4-0.8,0.6-1,0.6l0,0
		c0-0.1,0.1-0.5,0.5-1c0.4-0.4,0.8-0.6,1-0.6C2.8,7.4,2.7,7.8,2.2,8.3z"/>
	<path class="st0" d="M23.7,22.1l-4.2-7.3c-0.1-0.2-0.3-0.2-0.4-0.2s-0.3,0.1-0.4,0.2l-4.3,7.4c-0.1,0.2-0.1,0.3,0,0.5
		s0.3,0.2,0.4,0.2h8.5l0,0c0.3,0,0.5-0.2,0.5-0.5C23.8,22.4,23.7,22.2,23.7,22.1z M15.6,22l3.4-5.9l3.4,5.9H15.6z"/>
</g>
</svg>
