<?xml version="1.0" encoding="utf-8"?>
<!-- Generator: Adobe Illustrator 20.0.0, SVG Export Plug-In . SVG Version: 6.00 Build 0)  -->
<svg version="1.1" id="Layer_1" xmlns="http://www.w3.org/2000/svg" xmlns:xlink="http://www.w3.org/1999/xlink" x="0px" y="0px"
	 viewBox="0 0 25 25" style="enable-background:new 0 0 25 25;" xml:space="preserve">
<style type="text/css">
	.st0{fill:#f80913;}
</style>
<g>
	<path class="st0" d="M24,8c-0.3,0-0.5,0.2-0.5,0.5v10h-21C2.2,18.5,2,18.7,2,19s0.2,0.5,0.5,0.5h22v-11C24.5,8.2,24.3,8,24,8z"/>
	<path class="st0" d="M22.5,5.5h-22v12h22V5.5z M21.5,16.5h-20v-10h20V16.5z"/>
	<circle class="st0" cx="4.2" cy="9.3" r="0.9"/>
	<circle class="st0" cx="4.2" cy="11.9" r="0.9"/>
	<circle class="st0" cx="4.2" cy="14.5" r="0.9"/>
	<circle class="st0" cx="18.6" cy="9.3" r="0.9"/>
	<circle class="st0" cx="18.6" cy="11.9" r="0.9"/>
	<circle class="st0" cx="18.6" cy="14.5" r="0.9"/>
</g>
</svg>
