<?xml version="1.0" encoding="utf-8"?>
<!-- Generator: Adobe Illustrator 21.0.2, SVG Export Plug-In . SVG Version: 6.00 Build 0)  -->
<svg version="1.1" id="Layer_1" xmlns="http://www.w3.org/2000/svg" xmlns:xlink="http://www.w3.org/1999/xlink" x="0px" y="0px"
	 viewBox="0 0 837.3 166" style="enable-background:new 0 0 837.3 166;" xml:space="preserve">
<style type="text/css">
	.st0{fill:#676767;}
	.st1{fill:#FFFFFF;stroke:#000000;stroke-width:0.5;stroke-miterlimit:10;}
	.st2{fill:#03a9f4;}
	.st3{fill:#55cee2;}
	.st4{fill:#FFFFFF;}
	.st5{font-family:'OpenSans';}
	.st6{font-size:14.6px;}
</style>
<g id="Group_1_1_">
	<g id="Layer_2_xA0_Image_1_">
		<g>
			<circle cx="83" cy="83" r="75"/>
		</g>
		<g>
			<circle class="st0" cx="251.5" cy="83" r="75"/>
		</g>
		<g>
			<circle class="st1" cx="420" cy="83" r="75"/>
		</g>
		<g>
			<circle class="st2" cx="587" cy="83" r="75"/>
		</g>
		<g>
			<circle class="st3" cx="754" cy="83" r="75"/>
		</g>
	</g>
	<g id="Layer_3_xA0_Image_1_">
	</g>
	<g id="Layer_6_xA0_Image_1_">
	</g>
	<g id="_x23_676767">
		<text transform="matrix(1.0023 0 0 1 222.7715 136.5381)" class="st4 st5 st6">#</text>
		<text transform="matrix(1.0023 0 0 1 230.9907 136.5381)" class="st4 st5 st6">676767</text>
	</g>
	<g id="_x23_FFFFFF">
		<text transform="matrix(1.0023 0 0 1 393.5029 136.5381)" class="st5 st6">#</text>
		<text transform="matrix(1.0023 0 0 1 401.7217 136.5381)" class="st5 st6">FFFFFF</text>
	</g>
	<g id="_x23_000000">
		<text transform="matrix(1.0023 0 0 1 54.479 136.5381)" class="st4 st5 st6">#</text>
		<text transform="matrix(1.0023 0 0 1 62.6982 136.5381)" class="st4 st5 st6">000000</text>
	</g>
</g>
<g id="Layer_5_xA0_Image_1_">
</g>
<g id="_x23_33b5d5">
	<text transform="matrix(1.0023 0 0 1 559.3564 136.5381)" class="st4 st5 st6">#</text>
	<text transform="matrix(1.0023 0 0 1 567.5752 136.5381)" class="st4 st5 st6">03a9f4</text>
</g>
<g id="_x23_33b5d5_1_">
	<text transform="matrix(1.0023 0 0 1 726.0231 136.5381)" class="st4 st5 st6">#</text>
	<text transform="matrix(1.0023 0 0 1 734.2419 136.5381)" class="st4 st5 st6">55</text>
	<text transform="matrix(1.0023 0 0 1 748.8757 136.5381)" class="st4 st5 st6">c</text>
	<text transform="matrix(1.0023 0 0 1 757.0944 136.5381)" class="st4 st5 st6">e</text>
	<text transform="matrix(1.0023 0 0 1 764.4118 136.5381)" class="st4 st5 st6">e</text>
	<text transform="matrix(1.0023 0 0 1 772.6306 136.5381)" class="st4 st5 st6">2</text>
</g>
</svg>
