<?xml version="1.0" encoding="utf-8"?>
<!-- Generator: Adobe Illustrator 20.0.0, SVG Export Plug-In . SVG Version: 6.00 Build 0)  -->
<svg version="1.1" id="Layer_1" xmlns="http://www.w3.org/2000/svg" xmlns:xlink="http://www.w3.org/1999/xlink" x="0px" y="0px"
	 viewBox="0 0 24 24" style="enable-background:new 0 0 24 24;" xml:space="preserve">
<style type="text/css">
	.st0{fill:#f80913;}
</style>
<g>
	<path class="st0" d="M12,0.2c-0.3,0-0.5,0.2-0.5,0.5s0.2,0.5,0.5,0.5C18,1.2,22.8,6,22.8,12S18,22.8,12,22.8S1.2,18,1.2,12
		c0-0.3-0.2-0.5-0.5-0.5S0.2,11.7,0.2,12c0,6.5,5.3,11.8,11.8,11.8S23.8,18.5,23.8,12S18.5,0.2,12,0.2z"/>
	<path class="st0" d="M12,18.4c1.6,0,3.1-0.6,4.3-1.8S18,14,18,12.4s-0.6-3.1-1.8-4.3c-0.2-0.2-0.5-0.2-0.7,0s-0.2,0.5,0,0.7
		c1,0.9,1.5,2.2,1.5,3.6c0,1.3-0.5,2.6-1.5,3.6s-2.2,1.5-3.6,1.5c-1.3,0-2.6-0.5-3.6-1.5s-1.5-2.2-1.5-3.6C7,11,7.5,9.8,8.4,8.8
		c0.2-0.2,0.2-0.5,0-0.7s-0.5-0.2-0.7,0C6.6,9.3,6,10.8,6,12.4s0.6,3.1,1.8,4.3C8.9,17.8,10.4,18.4,12,18.4z"/>
	<path class="st0" d="M12,7.3c0.3,0,0.5-0.2,0.5-0.5V3.6c0-0.3-0.2-0.5-0.5-0.5s-0.5,0.2-0.5,0.5v3.2C11.5,7.1,11.7,7.3,12,7.3z"/>
	<path class="st0" d="M12,10.4c0.5,0,0.9-0.4,0.9-0.9S12.5,8.6,12,8.6S11.1,9,11.1,9.5C11.1,9.9,11.5,10.4,12,10.4z"/>
	<circle class="st0" cx="12" cy="12.4" r="0.9"/>
	<path class="st0" d="M12,16.3c0.5,0,0.9-0.4,0.9-0.9s-0.4-0.9-0.9-0.9s-0.9,0.4-0.9,0.9C11.1,15.8,11.5,16.3,12,16.3z"/>
</g>
</svg>
