<?xml version="1.0" encoding="utf-8"?>
<!-- Generator: Adobe Illustrator 20.0.0, SVG Export Plug-In . SVG Version: 6.00 Build 0)  -->
<svg version="1.1" id="Layer_1" xmlns="http://www.w3.org/2000/svg" xmlns:xlink="http://www.w3.org/1999/xlink" x="0px" y="0px"
	 viewBox="0 0 24 24" style="enable-background:new 0 0 24 24;" xml:space="preserve">
<style type="text/css">
	.st0{fill:#f80913;}
</style>
<g>
	<path class="st0" d="M23,2h-0.5H20H4H1.5H1C0.7,2,0.5,2.2,0.5,2.5v3v3v3v3v3v3C0.5,20.8,0.7,21,1,21h0.5H4h16h2.5H23
		c0.3,0,0.5-0.2,0.5-0.5v-3v-3v-3v-3v-3v-3C23.5,2.2,23.3,2,23,2z M1.5,12h2v2h-2V12z M1.5,9h2v2h-2V9z M3.5,8h-2V6h2V8z M1.5,15h2
		v2h-2V15z M4.5,17.5v-3v-3v-3v-3V3h15v2.5v3v3v3v3V20h-15V17.5z M22.5,8h-2V6h2V8z M22.5,11h-2V9h2V11z M22.5,14h-2v-2h2V14z
		 M20.5,15h2v2h-2V15z M22.5,3v2h-2V3H22.5z M3.5,3v2h-2V3H3.5z M1.5,20v-2h2v2H1.5z M20.5,20v-2h2v2H20.5z"/>
	<path class="st0" d="M17.2,13.5H6.9c-0.8,0-1.3,0.2-1.3,0.5s0.5,0.5,1.3,0.5h10.3c0.8,0,1.3-0.2,1.3-0.5S18,13.5,17.2,13.5z"/>
	<path class="st0" d="M17.2,16.5H6.9c-0.8,0-1.3,0.2-1.3,0.5s0.5,0.5,1.3,0.5h10.3c0.8,0,1.3-0.2,1.3-0.5S18,16.5,17.2,16.5z"/>
</g>
</svg>
