<?xml version="1.0" encoding="utf-8"?>
<!-- Generator: Adobe Illustrator 20.0.0, SVG Export Plug-In . SVG Version: 6.00 Build 0)  -->
<svg version="1.1" id="Layer_1" xmlns="http://www.w3.org/2000/svg" xmlns:xlink="http://www.w3.org/1999/xlink" x="0px" y="0px"
	 viewBox="0 0 25.4 25" style="enable-background:new 0 0 25.4 25;" xml:space="preserve">
<style type="text/css">
	.st0{fill:#f80913;}
</style>
<g>
	<path class="st0" d="M15.9,20.1l-3.1,3.1L9.6,20c-0.2-0.2-0.5-0.2-0.7,0s-0.2,0.5,0,0.7l3.5,3.5c0.1,0.1,0.2,0.1,0.4,0.1
		s0.3,0,0.4-0.1l3.5-3.5c0.2-0.2,0.2-0.5,0-0.7S16.1,19.9,15.9,20.1z"/>
	<path class="st0" d="M9.7,4.9l3.1-3.1L16,5c0.1,0.1,0.2,0.1,0.4,0.1s0.3,0,0.4-0.1c0.2-0.2,0.2-0.5,0-0.7l-3.5-3.5
		c-0.1-0.1-0.2-0.1-0.4-0.1s-0.3,0.1-0.4,0.1L9,4.2C8.8,4.4,8.8,4.7,9,4.9S9.5,5.1,9.7,4.9z"/>
	<path class="st0" d="M23.9,6h-23C0.6,6,0.4,6.2,0.4,6.5v12c0,0.3,0.2,0.5,0.5,0.5h23c0.3,0,0.5-0.2,0.5-0.5v-12
		C24.4,6.2,24.2,6,23.9,6z M23.4,18h-22V7h22V18z"/>
	<path class="st0" d="M8,17.2c2.6,0,4.7-2.1,4.7-4.7c0-0.3-0.2-0.5-0.5-0.5s-0.5,0.2-0.5,0.5c0,2.1-1.7,3.7-3.7,3.7
		s-3.7-1.7-3.7-3.7C4.3,10.4,6,8.8,8,8.8c0.3,0,0.5-0.2,0.5-0.5S8.3,7.8,8,7.8c-2.6,0-4.7,2.1-4.7,4.7C3.3,15.1,5.4,17.2,8,17.2z"/>
	<path class="st0" d="M14.4,12h7c0.3,0,0.5-0.2,0.5-0.5S21.7,11,21.4,11h-7c-0.3,0-0.5,0.2-0.5,0.5S14.1,12,14.4,12z"/>
	<path class="st0" d="M14.4,15h7c0.3,0,0.5-0.2,0.5-0.5S21.7,14,21.4,14h-7c-0.3,0-0.5,0.2-0.5,0.5S14.1,15,14.4,15z"/>
	<circle class="st0" cx="14.8" cy="9" r="0.8"/>
	<circle class="st0" cx="17.6" cy="9" r="0.8"/>
	<circle class="st0" cx="20.5" cy="9" r="0.8"/>
</g>
</svg>
