<?xml version="1.0" encoding="utf-8"?>
<!-- Generator: Adobe Illustrator 20.0.0, SVG Export Plug-In . SVG Version: 6.00 Build 0)  -->
<svg version="1.1" id="Layer_1" xmlns="http://www.w3.org/2000/svg" xmlns:xlink="http://www.w3.org/1999/xlink" x="0px" y="0px"
	 viewBox="0 0 24 24" style="enable-background:new 0 0 24 24;" xml:space="preserve">
<style type="text/css">
	.st0{fill:#f80913;}
</style>
<g>
	<path class="st0" d="M6.4,17.9l-2.5,2.3c-0.2,0.2-0.2,0.5,0,0.7C4,21,4.1,21,4.3,21c0.1,0,0.2,0,0.3-0.1l2.5-2.3
		c0.2-0.2,0.2-0.5,0-0.7S6.6,17.7,6.4,17.9z"/>
	<path class="st0" d="M5.3,12.7c0-0.3-0.2-0.5-0.4-0.6c-0.3,0-0.5,0.2-0.6,0.4l-0.1,0.8l-3,0.4c-0.3,0-0.5,0.3-0.4,0.6
		c0,0.3,0.2,0.4,0.5,0.4c0,0,0,0,0.1,0l3.7-0.5L5.3,12.7z"/>
	<path class="st0" d="M2.3,8l3,1.5c0.1,0,0.1,0.1,0.2,0.1c0.2,0,0.4-0.1,0.4-0.3C6.1,9,6,8.7,5.8,8.6l-3-1.5C2.5,7,2.2,7.1,2.1,7.3
		C2,7.6,2.1,7.9,2.3,8z"/>
	<path class="st0" d="M10.6,5.2c-0.1-0.3-0.3-0.4-0.6-0.4L9.2,5L7.8,2.4C7.6,2.1,7.3,2.1,7.1,2.2C6.8,2.3,6.8,2.6,6.9,2.9l1.8,3.3
		l1.6-0.4C10.5,5.7,10.7,5.4,10.6,5.2z"/>
	<path class="st0" d="M13.6,5.2C13.7,5.2,13.7,5.2,13.6,5.2c0.3,0,0.5-0.2,0.6-0.4l0.4-3.4c0-0.3-0.2-0.5-0.4-0.6
		c-0.3,0-0.5,0.2-0.6,0.4l-0.4,3.4C13.2,4.9,13.4,5.1,13.6,5.2z"/>
	<path class="st0" d="M18.9,8.1c0.1,0,0.2,0,0.3-0.1c0.2-0.2,0.3-0.5,0.1-0.7l-0.5-0.7l2-2.3c0.2-0.2,0.2-0.5,0-0.7s-0.5-0.2-0.7,0
		l-2.5,2.8l0.9,1.3C18.5,8,18.7,8.1,18.9,8.1z"/>
	<path class="st0" d="M17.7,15.7l3.6-3.6c0.1-0.1,0.2-0.3,0.1-0.5s-0.2-0.3-0.4-0.3L9.5,9C9.3,9,9.2,9,9,9.1
		C8.9,9.2,8.9,9.4,8.9,9.6l2.3,11.6c0,0.2,0.3,0.4,0.5,0.4h0.1c0.3-0.1,0.4-0.3,0.4-0.6L10,10.1l9.9,2l-5.7,5.7
		c-0.2,0.2-0.2,0.5,0,0.7s0.5,0.2,0.7,0l2-2l4.9,4.9l-1.1,1.1c-0.2,0.2-0.2,0.5,0,0.7c0.1,0.1,0.2,0.1,0.4,0.1s0.3,0,0.4-0.1
		l1.8-1.8L17.7,15.7z"/>
	<path class="st0" d="M15.8,14.6c-0.3-0.3-0.9-0.3-1.2,0c-0.2,0.2-0.3,0.4-0.3,0.6c0,0.2,0.1,0.4,0.2,0.6c0.2,0.2,0.4,0.3,0.6,0.3
		c0.2,0,0.4-0.1,0.6-0.2c0.2-0.2,0.2-0.4,0.2-0.6C16,15,15.9,14.8,15.8,14.6z"/>
	<path class="st0" d="M14,12.9c-0.3-0.3-0.9-0.3-1.2,0s-0.3,0.9,0,1.2c0.2,0.2,0.4,0.2,0.6,0.2s0.4-0.1,0.6-0.2
		c0.2-0.2,0.2-0.4,0.2-0.6C14.3,13.3,14.2,13.1,14,12.9z"/>
	<path class="st0" d="M12.3,11.1c-0.3-0.3-0.9-0.3-1.2,0s-0.3,0.9,0,1.2c0.2,0.2,0.4,0.3,0.6,0.3c0.2,0,0.4-0.1,0.6-0.3
		C12.6,12,12.6,11.5,12.3,11.1z"/>
</g>
</svg>
