<?xml version="1.0" encoding="utf-8"?>
<!-- Generator: Adobe Illustrator 20.0.0, SVG Export Plug-In . SVG Version: 6.00 Build 0)  -->
<svg version="1.1" id="Layer_1" xmlns="http://www.w3.org/2000/svg" xmlns:xlink="http://www.w3.org/1999/xlink" x="0px" y="0px"
	 viewBox="0 0 24 24" style="enable-background:new 0 0 24 24;" xml:space="preserve">
<style type="text/css">
	.st0{fill:#f80913;}
</style>
<path class="st0" d="M7.3,14.9c1.7,0,3.1-1.4,3.1-3.1c0-0.3-0.2-0.5-0.5-0.5s-0.5,0.2-0.5,0.5c0,1.1-0.9,2.1-2.1,2.1
	c-0.3,0-0.5,0.2-0.5,0.5S7,14.9,7.3,14.9z"/>
<path class="st0" d="M6.2,10.6c0.3,0,0.5-0.2,0.5-0.5c0-0.2-0.2-0.5-0.5-0.5c-0.2,0-0.5,0.2-0.5,0.5C5.7,10.4,5.9,10.6,6.2,10.6z"/>
<path class="st0" d="M3.1,16.3h8.7c0.3,0,0.5-0.2,0.5-0.5s-0.2-0.5-0.5-0.5H9.9c1.1-0.8,1.7-2,1.7-3.5c0-2.4-2-4.4-4.4-4.4
	s-4.4,2-4.4,4.4c0,1.4,0.7,2.7,1.7,3.5H3.1c-0.3,0-0.5,0.2-0.5,0.5C2.6,16.1,2.8,16.3,3.1,16.3z M3.9,11.9c0-1.8,1.5-3.4,3.4-3.4
	s3.4,1.5,3.4,3.4s-1.5,3.4-3.4,3.4C5.4,15.2,3.9,13.7,3.9,11.9z"/>
<path class="st0" d="M18.8,12.2c1.7,0,3.1-1.4,3.1-3.1c0-0.3-0.2-0.5-0.5-0.5s-0.5,0.2-0.5,0.5c0,1.1-0.9,2.1-2.1,2.1
	c-0.3,0-0.5,0.2-0.5,0.5S18.5,12.2,18.8,12.2z"/>
<path class="st0" d="M17.7,7.9c0.2,0,0.5-0.2,0.5-0.5C18.2,7.2,18,7,17.7,7s-0.5,0.2-0.5,0.5C17.3,7.7,17.5,7.9,17.7,7.9z"/>
<path class="st0" d="M23.3,13.4H20c1.8-0.5,3.2-2.2,3.2-4.2c0-2.4-2-4.4-4.4-4.4c-2,0-3.6,1.3-4.2,3.2V3.3c0-0.3-0.2-0.5-0.5-0.5
	H0.7C0.4,2.8,0.2,3,0.2,3.3v17.3c0,0.3,0.2,0.5,0.5,0.5h13.5c0.3,0,0.5-0.2,0.5-0.5v-6.2h8.6c0.3,0,0.5-0.2,0.5-0.5
	S23.6,13.4,23.3,13.4z M18.8,5.9c1.9,0,3.4,1.5,3.4,3.4s-1.5,3.4-3.4,3.4s-3.4-1.5-3.4-3.4C15.5,7.4,17,5.9,18.8,5.9z M13.7,20.2
	H1.2V3.8h12.5V20.2z M14.7,10.4c0.4,1.4,1.6,2.6,3,3h-3C14.7,13.4,14.7,10.4,14.7,10.4z"/>
</svg>
