<?xml version="1.0" encoding="utf-8"?>
<!-- Generator: Adobe Illustrator 20.0.0, SVG Export Plug-In . SVG Version: 6.00 Build 0)  -->
<svg version="1.1" id="Layer_1" xmlns="http://www.w3.org/2000/svg" xmlns:xlink="http://www.w3.org/1999/xlink" x="0px" y="0px"
	 viewBox="0 0 24 24" style="enable-background:new 0 0 24 24;" xml:space="preserve">
<style type="text/css">
	.st0{fill:#f80913;}
</style>
<path class="st0" d="M9.6,3.3c1.6-0.4,3.3-0.4,4.8,0h0.1c0.2,0,0.4-0.1,0.5-0.4s-0.1-0.5-0.3-0.6c-1.7-0.5-3.6-0.5-5.3,0
	C9.1,2.4,9,2.6,9,2.9C9.1,3.2,9.4,3.3,9.6,3.3z"/>
<path class="st0" d="M3,8.8c-0.3-0.1-0.6,0-0.6,0.3C2.1,10,1.9,11,1.9,12c0,0.9,0.1,1.8,0.4,2.7C2.4,14.9,2.6,15,2.8,15h0.1
	c0.3-0.1,0.4-0.3,0.3-0.6C3,13.6,2.9,12.8,2.9,12c0-0.9,0.1-1.8,0.4-2.6C3.4,9.1,3.3,8.9,3,8.8z"/>
<path class="st0" d="M14.6,20.7c-1.8,0.5-3.8,0.5-5.6-0.1l0,0c0.4-0.6,0.6-1.4,0.6-2.2c0-2.2-1.8-4.1-4.1-4.1
	c-2.2,0-4.1,1.8-4.1,4.1s1.8,4.1,4.1,4.1c1.1,0,2.1-0.4,2.8-1.2c0.1,0.1,0.1,0.2,0.3,0.2c1.1,0.4,2.2,0.5,3.3,0.5c1,0,2-0.1,2.9-0.4
	c0.3-0.1,0.4-0.4,0.3-0.6C15.2,20.7,14.9,20.6,14.6,20.7z M5.6,21.4c-1.7,0-3.1-1.4-3.1-3.1s1.4-3.1,3.1-3.1s3.1,1.4,3.1,3.1
	S7.3,21.4,5.6,21.4z"/>
<path class="st0" d="M21.1,15h0.1c0.2,0,0.4-0.1,0.5-0.4c0.2-0.9,0.4-1.8,0.4-2.7S22,10,21.7,9.1c-0.1-0.3-0.4-0.4-0.6-0.3
	c-0.3,0.1-0.4,0.4-0.3,0.6c0.2,0.8,0.4,1.7,0.4,2.5s-0.1,1.6-0.3,2.4C20.7,14.7,20.8,15,21.1,15z"/>
<path class="st0" d="M5.6,9.7c2.2,0,4.1-1.8,4.1-4.1c0-2.2-1.8-4.1-4.1-4.1c-2.2,0-4.1,1.8-4.1,4.1S3.4,9.7,5.6,9.7z M5.6,2.6
	c1.7,0,3.1,1.4,3.1,3.1S7.3,8.8,5.6,8.8S2.5,7.3,2.5,5.6S3.9,2.6,5.6,2.6z"/>
<path class="st0" d="M18.4,9.7c2.2,0,4.1-1.8,4.1-4.1c0-2.2-1.8-4.1-4.1-4.1c-2.2,0-4.1,1.8-4.1,4.1C14.3,7.9,16.1,9.7,18.4,9.7z
	 M18.4,2.6c1.7,0,3.1,1.4,3.1,3.1s-1.4,3.1-3.1,3.1s-3.1-1.4-3.1-3.1C15.3,3.9,16.7,2.6,18.4,2.6z"/>
<path class="st0" d="M18.4,14.3c-2.2,0-4.1,1.8-4.1,4.1s1.8,4.1,4.1,4.1c2.2,0,4.1-1.8,4.1-4.1S20.6,14.3,18.4,14.3z M18.4,21.4
	c-1.7,0-3.1-1.4-3.1-3.1s1.4-3.1,3.1-3.1s3.1,1.4,3.1,3.1S20.1,21.4,18.4,21.4z"/>
<path class="st0" d="M12,14.2c-0.3,0-0.5,0.1-0.7,0.3S11,14.9,11,15.2c0,0.5,0.4,0.9,0.9,0.9l0,0l0,0c0.5,0,0.9-0.4,0.9-0.9
	C13,14.6,12.5,14.2,12,14.2z"/>
<path class="st0" d="M12,7.9c-0.3,0-0.5,0.1-0.7,0.3S11,8.6,11,8.8c0,0.3,0.1,0.5,0.3,0.7s0.4,0.3,0.7,0.3c0.5,0,1-0.4,1-0.9
	C13,8.3,12.5,7.9,12,7.9z"/>
<path class="st0" d="M14.2,12c0,0.5,0.4,0.9,0.9,0.9l0,0c0.5,0,1-0.4,1-0.9c0-0.3-0.1-0.5-0.3-0.7S15.4,11,15.1,11
	C14.6,11,14.2,11.5,14.2,12z"/>
<path class="st0" d="M12.9,11.8c0-0.1,0-0.2-0.1-0.2l-0.1-0.1c0-0.1-0.1-0.1-0.1-0.2C12.5,11.2,12.3,11,12,11s-0.5,0.1-0.7,0.3
	c-0.1,0.1-0.1,0.2-0.2,0.3l0,0c0,0.1,0,0.1,0,0.2c0,0.1,0,0.1,0,0.2c0,0.4,0.2,0.7,0.5,0.8l0,0c0.1,0,0.1,0,0.2,0.1h0.1l0,0l0,0l0,0
	l0,0l0,0c0.1,0,0.1,0,0.1,0c0.1,0,0.2,0,0.2-0.1c0,0,0.1,0,0.1-0.1c0.1,0,0.1-0.1,0.2-0.1C12.7,12.4,12.8,12.2,12.9,11.8L12.9,11.8
	L12.9,11.8C13,11.9,12.9,11.9,12.9,11.8z"/>
<path class="st0" d="M8.9,11c-0.5,0-1,0.4-1,0.9s0.4,0.9,0.9,0.9l0,0l0,0c0.5,0,0.9-0.4,0.9-0.9C9.8,11.5,9.4,11,8.9,11z"/>
</svg>
