<?xml version="1.0" encoding="utf-8"?>
<!-- Generator: Adobe Illustrator 20.0.0, SVG Export Plug-In . SVG Version: 6.00 Build 0)  -->
<svg version="1.1" id="Layer_1" xmlns="http://www.w3.org/2000/svg" xmlns:xlink="http://www.w3.org/1999/xlink" x="0px" y="0px"
	 viewBox="0 0 128 128" style="enable-background:new 0 0 128 128;" xml:space="preserve">
<style type="text/css">
	.st0{fill:#f80913;}
	.st1{fill:#37474F;}
	.st2{fill:none;}
	.st3{fill:#FFFFFF;}
	.st4{fill:#78909C;}
	.st5{fill:#f80913;}
	.st6{fill:#f80913;}
</style>
<g>
	<g>
		<g>
			<g>
				<path class="st0" d="M109.6,64.7c0,26.4-21.4,47.7-47.8,47.7S14,91,14,64.7c0-26.4,21.4-47.8,47.8-47.8
					C88.2,16.9,109.6,38.3,109.6,64.7z"/>
			</g>
			<g>
				<path class="st1" d="M61.8,113.9c-27.2,0-49.3-22.1-49.3-49.2c0-27.2,22.1-49.3,49.3-49.3s49.3,22.1,49.3,49.3
					C111.1,91.8,89,113.9,61.8,113.9z M61.8,18.4c-25.5,0-46.3,20.7-46.3,46.3c0,25.5,20.7,46.2,46.3,46.2
					c25.5,0,46.3-20.7,46.3-46.2S87.3,18.4,61.8,18.4z"/>
			</g>
		</g>
		<g>
			<g>
				<g>
					<line class="st2" x1="61.5" y1="18" x2="61.5" y2="111"/>
				</g>
				<g>
					<path class="st1" d="M61.5,112.5c-0.8,0-1.5-0.7-1.5-1.5V18c0-0.8,0.7-1.5,1.5-1.5S63,17.2,63,18v93
						C63,111.8,62.3,112.5,61.5,112.5z"/>
				</g>
			</g>
			<g>
				<g>
					<line class="st2" x1="108" y1="64.5" x2="15" y2="64.5"/>
				</g>
				<g>
					<path class="st1" d="M108,66H15c-0.8,0-1.5-0.7-1.5-1.5S14.2,63,15,63h93c0.8,0,1.5,0.7,1.5,1.5C109.5,65.3,108.8,66,108,66z"
						/>
				</g>
			</g>
		</g>
		<g>
			<g>
				<path class="st3" d="M100,64.7c0,21.1-17.1,38.2-38.2,38.2S23.6,85.8,23.6,64.7s17.1-38.2,38.2-38.2
					C82.9,26.5,100,43.6,100,64.7z"/>
			</g>
			<g>
				<path class="st1" d="M61.8,104.4c-21.9,0-39.7-17.8-39.7-39.7C22.1,42.8,39.9,25,61.8,25s39.7,17.8,39.7,39.7
					S83.7,104.4,61.8,104.4z M61.8,28c-20.2,0-36.7,16.5-36.7,36.7s16.5,36.7,36.7,36.7s36.7-16.5,36.7-36.7
					C98.5,44.4,82.1,28,61.8,28z"/>
			</g>
		</g>
		<g>
			<g>
				<g>
					<polygon class="st1" points="52.5,85.1 85.8,64.7 52.5,44.2 					"/>
				</g>
				<g>
					<path class="st1" d="M52.5,86.6c-0.3,0-0.5-0.1-0.7-0.2c-0.5-0.3-0.8-0.8-0.8-1.3V44.2c0-0.5,0.3-1,0.8-1.3s1.1-0.3,1.5,0
						l33.3,20.4c0.4,0.3,0.7,0.8,0.7,1.3s-0.3,1-0.7,1.3L53.3,86.4C53,86.5,52.8,86.6,52.5,86.6z M54,46.9v35.5l28.9-17.7L54,46.9z"
						/>
				</g>
			</g>
			<g>
				<g>
					<g>
						<path class="st1" d="M42.4,74.2c0.9,0,1.6,0.7,1.6,1.6s-0.7,1.6-1.6,1.6c-0.9,0-1.6-0.7-1.6-1.6
							C40.8,74.9,41.5,74.2,42.4,74.2z"/>
					</g>
					<g>
						<path class="st1" d="M42.4,77.9c-1.1,0-2.1-1-2.1-2.1c0-0.5,0.2-1.1,0.6-1.5c0.4-0.4,0.9-0.6,1.5-0.6c1.2,0,2.1,0.9,2.1,2.1
							S43.5,77.9,42.4,77.9z M42.4,74.7c-0.3,0-0.6,0.1-0.8,0.3c-0.2,0.2-0.3,0.5-0.3,0.8c0,0.6,0.5,1.1,1.1,1.1s1.1-0.5,1.1-1.1
							C43.5,75.2,43,74.7,42.4,74.7z"/>
					</g>
				</g>
				<g>
					<g>
						<path class="st1" d="M42.4,63.1c0.9,0,1.6,0.7,1.6,1.6c0,0.9-0.7,1.6-1.6,1.6c-0.9,0-1.6-0.7-1.6-1.6
							C40.8,63.8,41.5,63.1,42.4,63.1z"/>
					</g>
					<g>
						<path class="st1" d="M42.4,66.8L42.4,66.8c-1.2,0-2.1-1-2.1-2.1s1-2.1,2.1-2.1c1.2,0,2.1,0.9,2.1,2.1
							C44.5,65.8,43.5,66.7,42.4,66.8L42.4,66.8z M42.4,63.6c-0.6,0-1.1,0.5-1.1,1.1s0.5,1.1,1.1,1.1s1.1-0.5,1.1-1.1
							S43,63.6,42.4,63.6z"/>
					</g>
				</g>
				<g>
					<g>
						<path class="st1" d="M42.4,51.9c0.9,0,1.6,0.7,1.6,1.6c0,0.9-0.7,1.6-1.6,1.6c-0.9,0-1.6-0.7-1.6-1.6
							C40.8,52.7,41.5,51.9,42.4,51.9z"/>
					</g>
					<g>
						<path class="st1" d="M42.4,55.6c-0.6,0-1.1-0.2-1.5-0.6c-0.4-0.4-0.6-0.9-0.6-1.5c0-0.5,0.2-1.1,0.6-1.5
							c0.4-0.4,0.9-0.6,1.5-0.6c1.1,0,2.1,1,2.1,2.1C44.5,54.7,43.5,55.6,42.4,55.6z M42.4,52.4c-0.3,0-0.6,0.1-0.8,0.3
							s-0.3,0.5-0.3,0.8s0.1,0.6,0.3,0.8s0.5,0.3,0.8,0.3c0.6,0,1.1-0.5,1.1-1.1S43,52.4,42.4,52.4z"/>
					</g>
				</g>
			</g>
		</g>
	</g>
	<g>
		<g>
			<g>
				<rect x="100.5" y="24.5" class="st4" width="14" height="68"/>
			</g>
			<g>
				<path class="st1" d="M116,94H99V23h17V94z M102,91h11V26h-11V91z"/>
			</g>
		</g>
		<g>
			<g>
				<line class="st2" x1="107.5" y1="34" x2="107.5" y2="89"/>
			</g>
			<g>
				<path class="st1" d="M107.5,90.5c-0.8,0-1.5-0.7-1.5-1.5V34c0-0.8,0.7-1.5,1.5-1.5s1.5,0.7,1.5,1.5v55
					C109,89.8,108.3,90.5,107.5,90.5z"/>
			</g>
		</g>
		<g>
			<g>
				<g>
					<path class="st5" d="M118.5,6.6v12.1L108,24.8l-10.5-6.1V6.6c-4,3.2-6.4,7.7-6.4,13.1c0,9.5,7.7,17.1,17.2,17.1
						s16.9-7.7,16.9-17.1C125.2,14.3,122.5,9.7,118.5,6.6z"/>
				</g>
				<g>
					<path class="st1" d="M108.2,38.3c-10.3,0-18.7-8.4-18.7-18.6c0-5.6,2.5-10.7,7-14.3C97,5,97.6,5,98.2,5.2C98.7,5.5,99,6,99,6.6
						v11.2l9,5.3l9-5.3V6.6c0-0.6,0.3-1.1,0.8-1.3s1.1-0.2,1.6,0.2c4.7,3.7,7.2,8.7,7.2,14.3C126.7,29.9,118.4,38.3,108.2,38.3z
						 M96,10.1c-2.2,2.7-3.4,6-3.4,9.5c0,8.6,7,15.6,15.7,15.6c8.5,0,15.4-7,15.4-15.6c0-3.5-1.3-6.8-3.7-9.6v8.6
						c0,0.5-0.3,1-0.7,1.3L108.8,26c-0.5,0.3-1,0.3-1.5,0l-10.6-6c-0.5-0.3-0.7-0.8-0.7-1.3V10.1z"/>
				</g>
			</g>
		</g>
		<g>
			<g>
				<path class="st5" d="M108.2,88.5c-9.5,0-17.1,7.7-17.1,17.1c0,9.5,7.7,17.2,17.1,17.2c9.5,0,17.2-7.7,17.2-17.2
					C125.4,96.1,117.7,88.5,108.2,88.5z M114.5,110l-7,4l-7-4v-8l7-4l7,4V110z"/>
			</g>
			<g>
				<path class="st1" d="M108.2,124.3c-10.3,0-18.6-8.4-18.6-18.7S98,87,108.2,87c10.3,0,18.7,8.4,18.7,18.6
					C126.9,115.9,118.5,124.3,108.2,124.3z M108.2,90c-8.6,0-15.6,7-15.6,15.6s7,15.7,15.6,15.7s15.7-7,15.7-15.7
					C123.9,97,116.8,90,108.2,90z M107.5,115.4c-0.3,0-0.5-0.1-0.7-0.2l-7-4c-0.5-0.3-0.8-0.8-0.8-1.3V102c0-0.5,0.3-1,0.8-1.3l7-4
					c0.5-0.3,1-0.3,1.5,0l7,4c0.5,0.3,0.8,0.8,0.8,1.3v7.9c0,0.5-0.3,1-0.8,1.3l-7,4C108,115.4,107.8,115.4,107.5,115.4z M102,109.1
					l5.5,3.1l5.5-3.1v-6.2l-5.5-3.1l-5.5,3.1V109.1z"/>
			</g>
		</g>
	</g>
	<g>
		<g>
			<g>
				<g>
					<rect x="8.5" y="9.5" class="st5" width="7" height="69"/>
				</g>
				<g>
					<path class="st1" d="M15.5,80h-7C7.7,80,7,79.3,7,78.5v-69C7,8.7,7.7,8,8.5,8h7C16.3,8,17,8.7,17,9.5v69
						C17,79.3,16.3,80,15.5,80z M10,77h4V11h-4V77z"/>
				</g>
			</g>
			<g>
				<g>
					<polygon class="st5" points="15.5,9.5 12,12.9 8.4,9.5 11.9,5.9 					"/>
				</g>
				<g>
					<path class="st1" d="M12,14.4c-0.4,0-0.7-0.1-1-0.4l-3.6-3.4C7,10.3,6.9,9.9,6.9,9.5S7,8.7,7.3,8.4l3.6-3.6
						c0.6-0.6,1.6-0.6,2.1,0l3.6,3.6C16.8,8.7,17,9.1,17,9.5s-0.2,0.8-0.5,1.1L13,14C12.8,14.2,12.4,14.4,12,14.4z M10.5,9.5
						l1.5,1.4l1.4-1.3L11.9,8L10.5,9.5z"/>
				</g>
			</g>
		</g>
		<g>
			<g>
				<g>
					<path class="st6" d="M21.5,114.4c0,5.1-3.9,9.2-9,9.2l0,0c-5.1,0-9-4.1-9-9.2V83.9c0-5.1,3.9-9.3,9-9.3l0,0c5.1,0,9,4.2,9,9.3
						V114.4z"/>
				</g>
				<g>
					<path class="st1" d="M12.5,125.2c-5.9,0-10.5-4.7-10.5-10.7V83.9c0-6,4.6-10.8,10.5-10.8S23,77.8,23,83.9v30.5
						C23,120.4,18.4,125.2,12.5,125.2z M12.5,76.2C8.3,76.2,5,79.6,5,84v30.5c0,4.3,3.3,7.7,7.5,7.7s7.5-3.4,7.5-7.7V83.9
						C20,79.6,16.7,76.2,12.5,76.2z"/>
				</g>
			</g>
			<g>
				<g>
					<rect x="7.5" y="68.5" class="st6" width="10" height="7"/>
				</g>
				<g>
					<path class="st1" d="M17.5,77h-10C6.7,77,6,76.3,6,75.5v-7C6,67.7,6.7,67,7.5,67h10c0.8,0,1.5,0.7,1.5,1.5v7
						C19,76.3,18.3,77,17.5,77z M9,74h7v-4H9V74z"/>
				</g>
			</g>
			<g>
				<g>
					<rect x="3.5" y="63.5" class="st6" width="18" height="8"/>
				</g>
				<g>
					<path class="st1" d="M21.5,73h-18C2.7,73,2,72.3,2,71.5v-8C2,62.7,2.7,62,3.5,62h18c0.8,0,1.5,0.7,1.5,1.5v8
						C23,72.3,22.3,73,21.5,73z M5,70h15v-5H5V70z"/>
				</g>
			</g>
		</g>
		<g>
			<g>
				<g>
					<path class="st1" d="M12.7,90.2c-0.9,0-1.6-0.7-1.6-1.6s0.7-1.6,1.6-1.6c0.9,0,1.6,0.7,1.6,1.6C14.3,89.4,13.6,90.2,12.7,90.2z
						"/>
				</g>
				<g>
					<path class="st1" d="M12.7,90.7c-1.2,0-2.1-0.9-2.1-2.1s0.9-2.1,2.1-2.1c1.1,0,2.1,1,2.1,2.1c0,0.5-0.2,1.1-0.6,1.5
						C13.8,90.4,13.3,90.7,12.7,90.7z M12.7,87.5c-0.6,0-1.1,0.5-1.1,1.1s0.5,1.1,1.1,1.1c0.3,0,0.6-0.1,0.8-0.3
						c0.2-0.2,0.3-0.5,0.3-0.8C13.8,88,13.3,87.5,12.7,87.5z"/>
				</g>
			</g>
			<g>
				<g>
					<path class="st1" d="M12.7,101.3c-0.9,0-1.6-0.7-1.6-1.6s0.7-1.6,1.6-1.6c0.9,0,1.6,0.7,1.6,1.6
						C14.3,100.6,13.6,101.3,12.7,101.3z"/>
				</g>
				<g>
					<path class="st1" d="M12.7,101.8c-1.2,0-2.1-0.9-2.1-2.1s0.9-2.1,2.1-2.1s2.1,1,2.1,2.1C14.8,100.9,13.8,101.8,12.7,101.8z
						 M12.7,98.6c-0.6,0-1.1,0.5-1.1,1.1s0.5,1.1,1.1,1.1s1.1-0.5,1.1-1.1S13.3,98.6,12.7,98.6z"/>
				</g>
			</g>
			<g>
				<g>
					<path class="st1" d="M12.7,112.5c-0.9,0-1.6-0.7-1.6-1.6s0.7-1.6,1.6-1.6c0.9,0,1.6,0.7,1.6,1.6
						C14.3,111.7,13.6,112.5,12.7,112.5z"/>
				</g>
				<g>
					<path class="st1" d="M12.7,113c-1.1,0-2.1-1-2.1-2.1c0-1.2,0.9-2.1,2.1-2.1c0.6,0,1.1,0.2,1.5,0.6s0.6,0.9,0.6,1.5
						c0,0.5-0.2,1.1-0.6,1.5C13.8,112.7,13.3,113,12.7,113z M12.7,109.8c-0.6,0-1.1,0.5-1.1,1.1s0.5,1.1,1.1,1.1
						c0.3,0,0.6-0.1,0.8-0.3c0.2-0.2,0.3-0.5,0.3-0.8s-0.1-0.6-0.3-0.8C13.3,109.9,13,109.8,12.7,109.8z"/>
				</g>
			</g>
		</g>
	</g>
</g>
</svg>
