<?xml version="1.0" encoding="utf-8"?>
<!-- Generator: Adobe Illustrator 20.0.0, SVG Export Plug-In . SVG Version: 6.00 Build 0)  -->
<svg version="1.1" id="Layer_1" xmlns="http://www.w3.org/2000/svg" xmlns:xlink="http://www.w3.org/1999/xlink" x="0px" y="0px"
	 viewBox="0 0 25 25" style="enable-background:new 0 0 25 25;" xml:space="preserve">
<style type="text/css">
	.st0{fill:#f80913;}
</style>
<g>
	<path class="st0" d="M21.3,2.5H9.8c-1.6,0-3.3,1.3-3.3,2.9v2.1h-3c-1.6,0-3,1.5-3,3.1v6.7c0,1.4,1,2.5,2,2.8v2.7l4.4-2.4H15
		c1.5,0,2.5-1.3,2.5-3.1v-1.9h0.4l3.9,1.8c0.1,0,0.1,0,0.2,0s0.2,0,0.3-0.1c0.1-0.1,0.2-0.3,0.2-0.4V15c1-0.3,2-1.4,2-2.8V5.4
		C24.5,3.9,23,2.5,21.3,2.5z M16.5,14.5H9.8c-1.1,0-2.3-1.2-2.3-2.3V8.5H15c1.1,0,1.5,1.2,1.5,2.1V14.5z M16.5,17.4
		c0,0.4-0.1,2.1-1.5,2.1H6.7l-3.2,1.7v-1.9H3.1c-0.7-0.1-1.6-0.9-1.6-1.9v-6.7c0-1.1,1-2.1,2-2.1h3v3.7c0,1.6,1.7,3.3,3.3,3.3h6.7
		V17.4z"/>
	<path class="st0" d="M21,5.5H10.5C10.2,5.5,10,5.7,10,6s0.2,0.5,0.5,0.5h10v1C20.5,7.8,20.7,8,21,8s0.5-0.2,0.5-0.5V6
		C21.5,5.7,21.3,5.5,21,5.5z"/>
</g>
</svg>
