<?xml version="1.0" encoding="utf-8"?>
<!-- Generator: Adobe Illustrator 20.0.0, SVG Export Plug-In . SVG Version: 6.00 Build 0)  -->
<svg version="1.1" id="Layer_1" xmlns="http://www.w3.org/2000/svg" xmlns:xlink="http://www.w3.org/1999/xlink" x="0px" y="0px"
	 viewBox="0 0 24 24" style="enable-background:new 0 0 24 24;" xml:space="preserve">
<style type="text/css">
	.st0{fill:#f80913;}
</style>
<g>
	<path class="st0" d="M3.9,0.6c-0.2-0.2-0.5-0.2-0.7,0S3,1.2,3.1,1.4L13.8,12L4,21.7V12c0-0.3-0.2-0.5-0.5-0.5S3,11.7,3,12v10.9
		c0,0.2,0.1,0.4,0.3,0.5c0.1,0,0.1,0,0.2,0c0.1,0,0.3-0.1,0.4-0.1l11-11C15,12.2,15,12.1,15,12s-0.1-0.3-0.1-0.4L3.9,0.6z"/>
	<path class="st0" d="M21,22h-3V1.5C18,1.2,17.8,1,17.5,1H14c-0.3,0-0.5,0.2-0.5,0.5S13.7,2,14,2h3v20.5c0,0.3,0.2,0.5,0.5,0.5H21
		c0.3,0,0.5-0.2,0.5-0.5S21.3,22,21,22z"/>
</g>
</svg>
