<?xml version="1.0" encoding="utf-8"?>
<!-- Generator: Adobe Illustrator 20.0.0, SVG Export Plug-In . SVG Version: 6.00 Build 0)  -->
<svg version="1.1" id="Layer_1" xmlns="http://www.w3.org/2000/svg" xmlns:xlink="http://www.w3.org/1999/xlink" x="0px" y="0px"
	 viewBox="0 0 24 24" style="enable-background:new 0 0 24 24;" xml:space="preserve">
<style type="text/css">
	.st0{fill:#f80913;}
</style>
<path class="st0" d="M19.9,5.7c-0.2-0.2-0.5-0.3-0.7-0.1C19.1,5.7,19,5.8,19,5.9V3.2C19,2,18,1,16.8,1H8.2C7,1,6,2,6,3.2V5
	c0,0,0-0.1-0.1-0.1c-0.2-0.2-0.5-0.2-0.7,0C4,6.1,2,8.6,2,11.9c0,2.8,1.8,5.3,3.2,6.9C5.3,18.9,5.4,19,5.6,19c0.1,0,0.2,0,0.3-0.1
	c0,0,0-0.1,0.1-0.1V21c0,1,1,2,2.2,2h8.7c1.2,0,2.2-1,2.2-2.2V18c0,0.1,0.1,0.1,0.1,0.1c0.1,0.1,0.2,0.1,0.3,0.1
	c0.1,0,0.3-0.1,0.4-0.2c1.4-1.8,2.2-3.9,2.2-6.2C22,9.6,21.3,7.5,19.9,5.7z M6,18.1L6,18.1c-1.4-1.5-3-3.7-3-6.3
	C3,9,4.8,6.7,5.9,5.6c0,0,0-0.1,0.1-0.1V18.1z M18,20.8c0,0.6-0.5,1.2-1.2,1.2h-2.1c0.3-0.1,0.4-0.4,0.4-0.7c0-0.4-0.4-0.8-0.8-0.8
	c-0.4,0-0.8,0.4-0.8,0.8c0,0.3,0.2,0.6,0.4,0.7h-1.3c0.3-0.1,0.4-0.4,0.4-0.7c0-0.4-0.4-0.8-0.8-0.8c-0.4,0-0.8,0.4-0.8,0.8
	c0,0.3,0.2,0.6,0.4,0.7h-1.3c0.3-0.1,0.4-0.4,0.4-0.7c0-0.4-0.4-0.8-0.8-0.8c-0.4,0-0.8,0.4-0.8,0.8c0,0.3,0.2,0.6,0.4,0.7H8.2
	C7.5,22,7,21.5,7,20.8V20h11V20.8z M18,19H7V5h11V19z M18,4H7V3.2C7,2.5,7.5,2,8.2,2H10C9.7,2.1,9.5,2.4,9.5,2.7
	c0,0.4,0.4,0.8,0.8,0.8c0.4,0,0.8-0.4,0.8-0.8c0-0.3-0.2-0.6-0.4-0.7H12c-0.3,0.1-0.4,0.4-0.4,0.7c0,0.4,0.4,0.8,0.8,0.8
	c0.4,0,0.8-0.4,0.8-0.8c0-0.3-0.2-0.6-0.4-0.7h1.3c-0.3,0.1-0.4,0.4-0.4,0.7c0,0.4,0.4,0.8,0.8,0.8c0.4,0,0.8-0.4,0.8-0.8
	c0-0.3-0.2-0.6-0.4-0.7H17c0.5,0,1,0.5,1,1.2V4z M19,17.5L19,17.5V6.2c0,0.1,0,0.1,0.1,0.2C20.3,8,21,9.9,21,11.9S20.3,15.9,19,17.5
	z"/>
</svg>
