<?xml version="1.0" encoding="utf-8"?>
<!-- Generator: Adobe Illustrator 20.0.0, SVG Export Plug-In . SVG Version: 6.00 Build 0)  -->
<svg version="1.1" id="Layer_1" xmlns="http://www.w3.org/2000/svg" xmlns:xlink="http://www.w3.org/1999/xlink" x="0px" y="0px"
	 viewBox="0 0 25 25" style="enable-background:new 0 0 25 25;" xml:space="preserve">
<style type="text/css">
	.st0{fill:#f80913;}
</style>
<g>
	<path class="st0" d="M14.8,7.9c-0.8-0.3-1.6-0.5-2.5-0.5l0,0l0,0l0,0c-0.3,0-0.5,0.2-0.5,0.5c0,0.3,0.2,0.5,0.5,0.5l0,0
		c0.8,0.1,1.6,0.2,2.3,0.4c2.2,0.9,3.7,3,3.7,5.5c0,3.3-2.6,5.9-5.9,5.9c-5.3,0-8.4-4-9.7-5.7c-0.2-0.2-0.3-0.4-0.4-0.5l-0.8,0.6
		c0.1,0.1,0.2,0.3,0.4,0.5c1.4,1.8,4.7,6.1,10.5,6.1c3.8,0,6.9-3.1,6.9-6.9c0-1.5-0.5-2.8-1.3-4c2.4,1.4,4.1,3.3,5,4.3l0.8-0.6
		C22.4,12.4,19.2,9.2,14.8,7.9z"/>
	<path class="st0" d="M8.4,13.5c-0.1,0.3-0.1,0.5-0.1,0.8c0,2.2,1.7,3.9,3.9,3.9c0.7,0,1.4-0.2,1.9-0.5C14,17.5,14,17.3,14,17h0.5
		c0-0.3,0.3-0.6,0.6-0.6s0.6,0.3,0.6,0.6h1c0-0.6-0.3-1.1-0.8-1.4c0.2-0.4,0.3-0.9,0.3-1.4c0-2.2-1.7-3.9-3.9-3.9
		c-0.1,0-0.2,0-0.4,0c0.1,0.2,0.2,0.4,0.2,0.7h-0.4c0,1-0.8,1.8-1.8,1.8S8.1,12,8.1,11h-1C7.1,12.1,7.6,13,8.4,13.5z M10.4,15.5
		c-1,0-1-1.5,0-1.5S11.4,15.5,10.4,15.5z M14,13.8c1,0,1,1.5,0,1.5S13.1,13.8,14,13.8z M12.2,15.4c-1,0-1-1.5,0-1.5
		S13.2,15.4,12.2,15.4z"/>
</g>
</svg>
