<?xml version="1.0" encoding="utf-8"?>
<!-- Generator: Adobe Illustrator 20.0.0, SVG Export Plug-In . SVG Version: 6.00 Build 0)  -->
<svg version="1.1" id="Layer_1" xmlns="http://www.w3.org/2000/svg" xmlns:xlink="http://www.w3.org/1999/xlink" x="0px" y="0px"
	 viewBox="0 0 24 24" style="enable-background:new 0 0 24 24;" xml:space="preserve">
<style type="text/css">
	.st0{fill:#f80913;}
</style>
<g>
	<path class="st0" d="M9.5,1H6C5.7,1,5.5,1.2,5.5,1.5S5.7,2,6,2h3v20c0,0.3,0.2,0.5,0.5,0.5S10,22.3,10,22V1.5C10,1.2,9.8,1,9.5,1z"
		/>
	<path class="st0" d="M18,22h-3V2c0-0.3-0.2-0.5-0.5-0.5S14,1.7,14,2v20.5c0,0.3,0.2,0.5,0.5,0.5H18c0.3,0,0.5-0.2,0.5-0.5
		S18.3,22,18,22z"/>
	<path class="st0" d="M16,2h2c0.3,0,0.5-0.2,0.5-0.5S18.3,1,18,1h-2c-0.3,0-0.5,0.2-0.5,0.5S15.7,2,16,2z"/>
	<path class="st0" d="M8,22H6c-0.3,0-0.5,0.2-0.5,0.5S5.7,23,6,23h2c0.3,0,0.5-0.2,0.5-0.5S8.3,22,8,22z"/>
</g>
</svg>
