<?xml version="1.0" encoding="utf-8"?>
<!-- Generator: Adobe Illustrator 20.0.0, SVG Export Plug-In . SVG Version: 6.00 Build 0)  -->
<svg version="1.1" id="Layer_1" xmlns="http://www.w3.org/2000/svg" xmlns:xlink="http://www.w3.org/1999/xlink" x="0px" y="0px"
	 viewBox="0 0 24 24" style="enable-background:new 0 0 24 24;" xml:space="preserve">
<style type="text/css">
	.st0{fill:#f80913;}
</style>
<g>
	<path class="st0" d="M12,0.5C5.6,0.5,0.5,5.6,0.5,12S5.7,23.5,12,23.5c6.4,0,11.5-5.2,11.5-11.5C23.5,5.6,18.4,0.5,12,0.5z
		 M12,22.5C6.2,22.5,1.5,17.8,1.5,12S6.2,1.5,12,1.5S22.5,6.2,22.5,12S17.8,22.5,12,22.5z"/>
	<path class="st0" d="M20.8,11.5c-0.3,0-0.5,0.2-0.5,0.5c0,4.6-3.7,8.3-8.3,8.3S3.7,16.6,3.7,12S7.4,3.7,12,3.7
		c0.3,0,0.5-0.2,0.5-0.5S12.3,2.7,12,2.7c-5.1,0-9.3,4.2-9.3,9.3s4.2,9.3,9.3,9.3s9.3-4.2,9.3-9.3C21.3,11.7,21.1,11.5,20.8,11.5z"
		/>
	<path class="st0" d="M9.6,7C9.4,7.3,9.5,7.6,9.7,7.7l7,4.3l-7,4.3c-0.2,0.1-0.3,0.5-0.2,0.7s0.3,0.2,0.4,0.2c0.1,0,0.2,0,0.3-0.1
		l7.7-4.7c0.1-0.1,0.2-0.3,0.2-0.4s-0.1-0.3-0.2-0.4l-7.7-4.7C10,6.7,9.7,6.8,9.6,7z"/>
	<path class="st0" d="M7.5,13.7c-0.2,0-0.5,0.1-0.6,0.3c-0.2,0.2-0.2,0.4-0.2,0.6c0,0.5,0.4,0.9,0.9,0.9s0.9-0.4,0.9-0.9
		C8.4,14.1,8,13.7,7.5,13.7z"/>
	<path class="st0" d="M7.5,11.1c-0.5,0-0.9,0.4-0.9,0.9s0.4,0.9,0.9,0.9l0,0l0,0c0.5,0,0.9-0.4,0.9-0.9S8,11.1,7.5,11.1z"/>
	<path class="st0" d="M7.5,8.6C7.3,8.6,7,8.7,6.9,8.8C6.7,9,6.6,9.2,6.6,9.4S6.7,9.9,6.8,10c0.2,0.2,0.4,0.3,0.6,0.3
		c0.5,0,0.9-0.4,0.9-0.9S8,8.6,7.5,8.6z"/>
</g>
</svg>
