<?xml version="1.0" encoding="utf-8"?>
<!-- Generator: Adobe Illustrator 20.0.0, SVG Export Plug-In . SVG Version: 6.00 Build 0)  -->
<svg version="1.1" id="Layer_1" xmlns="http://www.w3.org/2000/svg" xmlns:xlink="http://www.w3.org/1999/xlink" x="0px" y="0px"
	 viewBox="0 0 24 24" style="enable-background:new 0 0 24 24;" xml:space="preserve">
<style type="text/css">
	.st0{fill:#f80913;}
</style>
<g>
	<path class="st0" d="M17,4.8L17,4.8c0.5,0.4,1.1,0.7,1.8,0.7c1.5,0,2.7-1.2,2.7-2.7s-1.2-2.7-2.7-2.7s-2.7,1.2-2.7,2.7
		c0,0.4,0.1,0.8,0.3,1.2l0,0l-9.3,6.6c-0.5-0.5-1.2-0.8-1.9-0.8c-1.5,0-2.7,1.2-2.7,2.7s1.2,2.7,2.7,2.7c0.8,0,1.5-0.3,1.9-0.9
		l0.1,0.1l9,6.4c0,0.1,0,0.3,0,0.4c0,1.5,1.2,2.7,2.7,2.7s2.7-1.2,2.7-2.7s-1.2-2.7-2.7-2.7c-1,0-1.8,0.5-2.3,1.3l-8.7-6.2
		c-0.1,0-0.1-0.1-0.2-0.1c0.1-0.3,0.2-0.7,0.2-1c0-0.4-0.1-0.7-0.2-1l0,0L17,4.8z M18.8,1.2c0.9,0,1.7,0.7,1.7,1.7s-0.7,1.7-1.7,1.7
		s-1.7-0.7-1.7-1.7S17.9,1.2,18.8,1.2z M18.8,19.5c0.9,0,1.7,0.7,1.7,1.7s-0.7,1.7-1.7,1.7s-1.7-0.7-1.7-1.7S17.9,19.5,18.8,19.5z
		 M5.2,14.1c-0.9,0-1.7-0.7-1.7-1.7s0.7-1.7,1.7-1.7s1.7,0.7,1.7,1.7S6.1,14.1,5.2,14.1z"/>
</g>
</svg>
