<?xml version="1.0" encoding="utf-8"?>
<!-- Generator: Adobe Illustrator 20.0.0, SVG Export Plug-In . SVG Version: 6.00 Build 0)  -->
<svg version="1.1" id="Layer_1" xmlns="http://www.w3.org/2000/svg" xmlns:xlink="http://www.w3.org/1999/xlink" x="0px" y="0px"
	 viewBox="0 0 24 24" style="enable-background:new 0 0 24 24;" xml:space="preserve">
<style type="text/css">
	.st0{fill:#f80913;}
</style>
<g>
	<path class="st0" d="M22.6,12.9c0.3-0.3,0.6-0.8,0.6-1.3c0-1-0.8-1.8-1.8-1.8h-5l0,0h-2l1.8-3.2c0.4-0.6,0.6-2.7,0.5-3.2
		c0-0.6-0.8-1.7-1.6-1.7c-0.7,0-1.2,0.6-1.4,1.9L8.5,10c-0.1,0.1-0.3,0.2-0.4,0.3L8,10.4c-0.3,0.3-0.5,0.6-0.6,1h-1
		C5.9,10.6,5,9.9,3.9,9.9H0.8c-0.3,0-0.5,0.2-0.5,0.5s0.2,0.5,0.5,0.5h3.1c0.9,0,1.6,0.7,1.6,1.6v7.1c0,0.9-0.7,1.6-1.6,1.6H0.8
		c-0.3,0-0.5,0.2-0.5,0.5s0.2,0.5,0.5,0.5h3.1c1.1,0,2.1-0.7,2.5-1.7h1.5c0.3,1,1.4,1.7,2.4,1.7h6.2l0,0h3.8c1,0,1.8-0.8,1.8-1.8
		c0-0.5-0.2-0.9-0.5-1.2c0.9-0.1,1.6-0.8,1.6-1.8c0-0.5-0.2-1-0.6-1.3c0.7-0.3,1.1-0.9,1.1-1.7S23.3,13.2,22.6,12.9z M22,15.4h-3.6
		c-0.3,0-0.5,0.2-0.5,0.5c0,0.1,0,0.1,0,0.1c0,0.1-0.1,0.1-0.1,0.2c0,0.3,0.2,0.5,0.5,0.5h3.1c0.4,0,0.8,0.4,0.8,0.8
		s-0.4,0.8-0.8,0.8h-3.1c-0.3,0-0.5,0.2-0.5,0.5c0,0.1,0,0.1,0,0.2s-0.1,0.1-0.1,0.2c0,0.3,0.2,0.5,0.5,0.5h1.9
		c0.4,0,0.8,0.4,0.8,0.8s-0.4,0.8-0.8,0.8h-3.8l0,0h-6.2c-0.6,0-1.4-0.5-1.4-1.2c0-0.3-0.2-0.5-0.5-0.5H6.5v-7.1l0,0h1.2
		c0.3,0,0.5-0.2,0.5-0.5s0.1-0.6,0.3-0.8l0.1-0.1C8.8,11,8.9,11,9,10.9c0.1,0,0.1-0.1,0.2-0.1l5.3-6.6c0.1-0.1,0.1-0.1,0.1-0.2
		C14.8,2.9,15,2.8,15,2.8c0.1,0,0.6,0.6,0.7,0.8C15.8,4,15.6,5.7,15.5,6l-0.1,0.1l-2.2,4c-0.1,0.2-0.1,0.3,0,0.5s0.3,0.2,0.4,0.2
		h2.7l0,0h5.1c0.4,0,0.8,0.4,0.8,0.8s-0.4,0.8-0.8,0.8h-3.1c-0.3,0-0.5,0.2-0.5,0.5V13c-0.1,0.1-0.1,0.2-0.1,0.3
		c0,0.3,0.2,0.5,0.5,0.5H22c0.4,0,0.8,0.4,0.8,0.8C22.7,15,22.4,15.4,22,15.4z"/>
</g>
</svg>
