<?xml version="1.0" encoding="utf-8"?>
<!-- Generator: Adobe Illustrator 20.0.0, SVG Export Plug-In . SVG Version: 6.00 Build 0)  -->
<svg version="1.1" id="Layer_1" xmlns="http://www.w3.org/2000/svg" xmlns:xlink="http://www.w3.org/1999/xlink" x="0px" y="0px"
	 viewBox="0 0 24 24.2" style="enable-background:new 0 0 24 24.2;" xml:space="preserve">
<style type="text/css">
	.st0{fill:#f80913;}
</style>
<g>
	<g>
		<g>
			<path class="st0" d="M18,11.7c-0.1,0-0.3,0-0.4-0.1c-0.2-0.2-0.2-0.5,0-0.7l4.8-4.8L18,1.7l-4.6,4.6c-0.2,0.2-0.5,0.2-0.7,0
				s-0.2-0.5,0-0.7l4.9-4.9c0.2-0.2,0.5-0.2,0.7,0l5.1,5.1c0.1,0.1,0.1,0.2,0.1,0.4c0,0.1-0.1,0.3-0.1,0.4l-5.1,5.1
				C18.2,11.6,18.1,11.7,18,11.7z"/>
		</g>
		<g>
			<path class="st0" d="M5.7,24c-0.1,0-0.3,0-0.4-0.1l-5.1-5.1c-0.1-0.1-0.1-0.2-0.1-0.4c0-0.1,0.1-0.3,0.1-0.4l4.5-4.5
				c0.2-0.2,0.5-0.2,0.7,0s0.2,0.5,0,0.7l-4.1,4.1l4.4,4.4l4-4c0.2-0.2,0.5-0.2,0.7,0s0.2,0.5,0,0.7L6,23.8C5.9,23.9,5.8,24,5.7,24z
				"/>
		</g>
		<g>
			<g>
				<path class="st0" d="M19.5,6.6c-0.2-0.2-0.5-0.2-0.7,0l-1.5,1.5l-0.6-0.6c-0.2-0.2-0.5-0.2-0.7,0S15.8,8,16,8.2l0.6,0.6
					l-0.9,0.9c-0.2,0.2-0.2,0.5,0,0.7c0.1,0.1,0.2,0.1,0.4,0.1c0.2,0,0.3,0,0.4-0.1l3.2-3.2C19.7,7.1,19.7,6.8,19.5,6.6z"/>
				<path class="st0" d="M9.6,16.1l-0.8-0.8c-0.2-0.2-0.5-0.2-0.7,0s-0.2,0.5,0,0.7l0.6,0.6l-1.9,1.9l-0.6-0.6
					c-0.2-0.2-0.5-0.2-0.7,0s-0.2,0.5,0,0.7l0.6,0.6L5.3,20c-0.2,0.2-0.2,0.5,0,0.7c0.1,0.1,0.2,0.1,0.4,0.1s0.3,0,0.4-0.1l3.5-3.5
					c0.1-0.1,0.2-0.3,0.1-0.5C9.7,16.5,9.7,16.3,9.6,16.1z"/>
			</g>
		</g>
	</g>
	<g>
		<g>
			<path class="st0" d="M1.4,6.4c-0.1,0-0.3,0-0.4-0.1C0.3,5.6,0.7,4,2,2.7c1-1,2-1.5,2.8-1.5l0,0c0.4,0,0.7,0.1,0.9,0.4
				c0.2,0.2,0.2,0.5,0,0.7C5.6,2.4,5.2,2.4,5,2.2c0,0-0.1,0-0.2,0l0,0c-0.4,0-1.2,0.3-2,1.1c-1,1-1.3,2-1,2.2C2,5.7,2,6,1.8,6.2
				C1.7,6.3,1.5,6.4,1.4,6.4z"/>
		</g>
		<polygon class="st0" points="22.4,22.8 21.5,20.7 20.3,21.9 		"/>
		<path class="st0" d="M22.9,22.6l-0.5-1.1l-1.8-4.1c0,0,0,0-0.1-0.1c0-0.1,0-0.2,0-0.3c0-0.4-0.1-0.7-0.4-0.9L7.6,3.4
			C6.9,2.7,5.3,3.1,4,4.4l0,0l0,0l0,0C3.4,5,3,5.7,2.7,6.3C2.5,7.1,2.5,7.7,2.9,8.1l12.6,12.6c0.2,0.2,0.6,0.4,1,0.4
			c0.1,0,0.2,0,0.2,0s0.1,0,0.1,0.1l5.4,2.2c0.1,0,0.1,0,0.2,0s0.3-0.1,0.4-0.2l0,0l0,0C23,23,23,22.8,22.9,22.6z M17.3,19L4.7,6.3
			C4.4,6,4.4,5.5,4.7,5.1C4.8,5,5.1,4.9,5.3,4.9c0.2,0,0.4,0.1,0.6,0.2l12.6,12.6c0.1,0.1,0.2,0.3,0.2,0.5l-0.9,0.9
			C17.6,19.1,17.4,19.1,17.3,19z M6.7,4c0.1,0,0.2,0,0.2,0.1l12.6,12.6c0.1,0.1,0.1,0.2,0.1,0.2c0,0.1,0,0.3-0.1,0.5l0,0
			c-0.1-0.1-0.2-0.3-0.3-0.4L6.6,4.4C6.5,4.3,6.3,4.2,6.2,4.1C6.4,4.1,6.5,4,6.7,4z M16.3,20L3.6,7.4c0-0.1-0.1-0.4,0.1-0.8l0,0
			C3.8,6.8,3.9,6.9,4,7l12.6,12.6c0.1,0.1,0.3,0.2,0.4,0.3l0,0C16.8,20,16.6,20,16.5,20C16.4,20.1,16.3,20.1,16.3,20z M19.2,19.7
			L19.2,19.7L19.2,19.7c0.4-0.4,0.6-0.7,0.9-1.1l0.9,2l-0.8,0.8l-2.1-0.8C18.5,20.3,18.8,20,19.2,19.7z"/>
	</g>
</g>
</svg>
