<?xml version="1.0" encoding="utf-8"?>
<!-- Generator: Adobe Illustrator 20.0.0, SVG Export Plug-In . SVG Version: 6.00 Build 0)  -->
<svg version="1.1" id="Layer_1" xmlns="http://www.w3.org/2000/svg" xmlns:xlink="http://www.w3.org/1999/xlink" x="0px" y="0px"
	 viewBox="0 0 25 25" style="enable-background:new 0 0 25 25;" xml:space="preserve">
<style type="text/css">
	.st0{fill:#f80913;}
</style>
<g>
	<path class="st0" d="M24.2,10.3c-0.1-0.1-0.1-0.2-0.3-0.3L12.5,5.8c-0.1,0-0.2,0-0.3,0L1,9.9C0.9,9.9,0.9,10,0.8,10
		c-0.2,0.1-0.3,0.3-0.3,0.5v3.8c0,0.2,0.1,0.4,0.3,0.5l0.1,0.1L12,19.2c0.1,0,0.1,0,0.2,0c0.1,0,0.1,0,0.2,0L23.9,15
		c0.1,0,0.2-0.1,0.3-0.2c0.2-0.1,0.3-0.3,0.3-0.5v-3.5C24.5,10.5,24.4,10.4,24.2,10.3z M12.3,6.8l10,3.7l-4,1.5l-5.8-2.1
		c-0.1,0-0.2,0-0.3,0l-6,2.2l-4.6,1.7v-3L12.3,6.8z M16.8,12.5l-4.5,1.7l-4.5-1.7l4.5-1.7L16.8,12.5z M12.3,18.2l-9.7-3.8L6.3,13
		l5.8,2.1c0.1,0,0.2,0,0.3,0l6-2.2l5.1-1.9v3L12.3,18.2z"/>
</g>
</svg>
