<?xml version="1.0" encoding="utf-8"?>
<!-- Generator: Adobe Illustrator 20.0.0, SVG Export Plug-In . SVG Version: 6.00 Build 0)  -->
<svg version="1.1" id="Layer_1" xmlns="http://www.w3.org/2000/svg" xmlns:xlink="http://www.w3.org/1999/xlink" x="0px" y="0px"
	 viewBox="0 0 25 25" style="enable-background:new 0 0 25 25;" xml:space="preserve">
<style type="text/css">
	.st0{fill:#f80913;}
</style>
<g>
	<path class="st0" d="M5.4,3.3h14.7l0.1,4.4h-0.6c-0.3-1.4-0.7-2.3-1.2-2.7c-0.5-0.4-1.5-0.6-3-0.6H14v13.3c0,1,0.2,1.6,0.5,1.9
		c0.3,0.2,1,0.4,2.1,0.5v0.5H9V20c1.1-0.1,1.8-0.3,2.1-0.5c0.3-0.3,0.4-1,0.4-2.1v-13H10C8.5,4.4,7.6,4.6,7,5
		C6.5,5.4,6.1,6.3,5.9,7.7H5.2L5.4,3.3z"/>
</g>
</svg>
