<?xml version="1.0" encoding="utf-8"?>
<!-- Generator: Adobe Illustrator 20.0.0, SVG Export Plug-In . SVG Version: 6.00 Build 0)  -->
<svg version="1.1" id="Layer_1" xmlns="http://www.w3.org/2000/svg" xmlns:xlink="http://www.w3.org/1999/xlink" x="0px" y="0px"
	 viewBox="0 0 24 24" style="enable-background:new 0 0 24 24;" xml:space="preserve">
<style type="text/css">
	.st0{fill:#f80913;}
</style>
<g>
	<path class="st0" d="M10.2,13.3H4.9L3,18H2L7.3,4.8h0.6L13.1,18h-1L10.2,13.3z M5.2,12.5h4.7L8.1,7.8C8,7.4,7.8,6.9,7.6,6.2
		C7.4,6.8,7.2,7.3,7,7.8L5.2,12.5z"/>
	<path class="st0" d="M20.6,18l-0.2-1.5h-0.1c-0.5,0.6-1,1.1-1.5,1.3c-0.5,0.3-1.1,0.4-1.8,0.4c-1,0-1.7-0.2-2.2-0.7
		c-0.5-0.5-0.8-1.2-0.8-2c0-1,0.4-1.7,1.2-2.2c0.8-0.5,1.9-0.8,3.5-0.8l1.9-0.1v-0.6c0-0.9-0.2-1.6-0.6-2.1c-0.4-0.5-1-0.7-1.8-0.7
		c-0.9,0-1.8,0.3-2.8,0.8l-0.3-0.8C16,8.3,17,8,18.1,8c1.1,0,1.9,0.3,2.4,0.8s0.8,1.4,0.8,2.6V18H20.6z M17,17.4
		c1,0,1.9-0.3,2.5-0.9c0.6-0.6,0.9-1.4,0.9-2.5v-1l-1.7,0.1c-1.4,0.1-2.4,0.3-2.9,0.6s-0.9,0.9-0.9,1.7c0,0.6,0.2,1.1,0.6,1.4
		S16.4,17.4,17,17.4z"/>
</g>
</svg>
