<?xml version="1.0" encoding="utf-8"?>
<!-- Generator: Adobe Illustrator 20.0.0, SVG Export Plug-In . SVG Version: 6.00 Build 0)  -->
<svg version="1.1" id="Layer_1" xmlns="http://www.w3.org/2000/svg" xmlns:xlink="http://www.w3.org/1999/xlink" x="0px" y="0px"
	 viewBox="0 0 24 24" style="enable-background:new 0 0 24 24;" xml:space="preserve">
<style type="text/css">
	.st0{fill:#f80913;}
</style>
<g>
	<path class="st0" d="M9.2,13.3H4.6L2.1,18H1L8.4,4.8H9L10.8,18H9.9L9.2,13.3z M9.1,12.5L8.8,9.9C8.6,8.4,8.5,7.2,8.4,6.2
		C8.3,6.6,8.1,7,7.9,7.4c-0.2,0.4-1.1,2.1-2.8,5.1H9.1z"/>
	<path class="st0" d="M17.4,8.1c1.4,0,2.2,0.7,2.5,2H20l0.5-1.8h0.7L19.2,18h-0.7l0.4-2.5h-0.1c-0.5,0.9-1.1,1.5-1.7,2
		s-1.3,0.7-2.1,0.7c-1.7,0-2.5-1.1-2.5-3.4c0-1.2,0.2-2.3,0.7-3.4c0.4-1.1,1.1-1.9,1.8-2.5C15.7,8.3,16.5,8.1,17.4,8.1z M15.2,17.4
		c0.5,0,1.1-0.2,1.6-0.6s1-0.9,1.4-1.5c0.4-0.6,0.7-1.3,1-2.1c0.2-0.8,0.3-1.4,0.3-1.9c0-0.5-0.1-0.9-0.2-1.3s-0.4-0.7-0.7-0.9
		s-0.7-0.3-1.1-0.3c-0.7,0-1.4,0.2-2,0.7c-0.6,0.5-1.1,1.2-1.5,2.2c-0.4,1-0.6,2-0.6,2.9c0,0.9,0.2,1.6,0.4,2
		C14.1,17.1,14.6,17.4,15.2,17.4z"/>
	<path class="st0" d="M2,19.8v-0.9h19.7v0.9H2z"/>
</g>
</svg>
