<?xml version="1.0" encoding="utf-8"?>
<!-- Generator: Adobe Illustrator 20.0.0, SVG Export Plug-In . SVG Version: 6.00 Build 0)  -->
<svg version="1.1" id="Layer_1" xmlns="http://www.w3.org/2000/svg" xmlns:xlink="http://www.w3.org/1999/xlink" x="0px" y="0px"
	 viewBox="0 0 24 24" style="enable-background:new 0 0 24 24;" xml:space="preserve">
<style type="text/css">
	.st0{fill:#f80913;}
</style>
<g>
	<path class="st0" d="M23,2h-0.5H20H4H1.5H1C0.7,2,0.5,2.2,0.5,2.5v3v3v3v3v3v3C0.5,20.8,0.7,21,1,21h0.5H4h16h2.5H23
		c0.3,0,0.5-0.2,0.5-0.5v-3v-3v-3v-3v-3v-3C23.5,2.2,23.3,2,23,2z M1.5,12h2v2h-2V12z M1.5,9h2v2h-2V9z M3.5,8h-2V6h2V8z M1.5,15h2
		v2h-2V15z M4.5,17.5v-3v-3v-3v-3V3h15v2.5v3v3v3v3V20h-15V17.5z M22.5,8h-2V6h2V8z M22.5,11h-2V9h2V11z M22.5,14h-2v-2h2V14z
		 M20.5,15h2v2h-2V15z M22.5,3v2h-2V3H22.5z M3.5,3v2h-2V3H3.5z M1.5,20v-2h2v2H1.5z M20.5,20v-2h2v2H20.5z"/>
	<path class="st0" d="M17.3,5.5c-0.1-0.1-0.3-0.1-0.5-0.1L9.8,8C9.6,8.1,9.5,8.4,9.5,8.6v0.1v6.4C9.3,15,9.1,15,8.9,15
		c-0.5,0-1,0.2-1.3,0.3c-1,0.7-1.5,1.8-1,2.6c0.3,0.4,0.8,0.7,1.4,0.7c0.5,0,0.9-0.1,1.4-0.4c1-0.6,1.4-1.5,1-2.3v-5l6-2.3V9v4
		c-0.6-0.2-1.3-0.1-2,0.3c-0.5,0.3-0.8,0.7-1,1.2s-0.2,1,0.1,1.4s0.8,0.7,1.4,0.7c0.5,0,0.9-0.1,1.4-0.4c0.5-0.3,0.8-0.7,1-1.2
		c0.1-0.3,0.2-0.6,0.1-0.9V14V9V7.9V7V5.9C17.5,5.7,17.4,5.6,17.3,5.5z M8.9,17.3c-0.3,0.2-0.6,0.3-0.8,0.3c-0.1,0-0.4,0-0.5-0.2
		c-0.2-0.3,0-0.9,0.6-1.2C8.3,16.1,8.6,16,8.9,16c0.5,0,0.6,0.2,0.6,0.3C9.8,16.6,9.4,17.1,8.9,17.3z M10.5,9.8v-1l6-2.2V7v0.5
		L10.5,9.8z M16.4,14.7c-0.1,0.3-0.3,0.5-0.6,0.7c-0.5,0.3-1.2,0.3-1.4,0c-0.1-0.2,0-0.4,0-0.5c0.1-0.3,0.3-0.5,0.6-0.7
		s0.6-0.3,0.8-0.3c0.1,0,0.4,0,0.5,0.2C16.6,14.3,16.5,14.6,16.4,14.7z"/>
	<path class="st0" d="M7.6,14.2c0.5,0,0.9-0.4,0.9-0.9s-0.4-0.9-0.9-0.9s-0.9,0.4-0.9,0.9S7.1,14.2,7.6,14.2z"/>
	<path class="st0" d="M7.6,11.3c0.5,0,0.9-0.4,0.9-0.9S8.1,9.5,7.6,9.5s-0.9,0.4-0.9,0.9C6.7,10.9,7.1,11.3,7.6,11.3z"/>
	<path class="st0" d="M7.6,8.4c0.5,0,0.9-0.4,0.9-0.9S8.1,6.6,7.6,6.6C7.1,6.6,6.7,7,6.7,7.5S7.1,8.4,7.6,8.4z"/>
</g>
</svg>
