<?xml version="1.0" encoding="utf-8"?>
<!-- Generator: Adobe Illustrator 20.0.0, SVG Export Plug-In . SVG Version: 6.00 Build 0)  -->
<svg version="1.1" id="Layer_1" xmlns="http://www.w3.org/2000/svg" xmlns:xlink="http://www.w3.org/1999/xlink" x="0px" y="0px"
	 viewBox="0 0 128 128" style="enable-background:new 0 0 128 128;" xml:space="preserve">
<style type="text/css">
	.st0{fill:#FFFFFF;}
	.st1{fill:#37474F;}
	.st2{fill:#f80913;}
	.st3{fill:none;}
	.st4{fill:#78909C;}
</style>
<g>
	<g>
		<rect x="10" y="13.5" class="st0" width="108" height="101"/>
		<path class="st1" d="M118,116H10c-0.8,0-1.5-0.7-1.5-1.5v-101c0-0.8,0.7-1.5,1.5-1.5h108c0.8,0,1.5,0.7,1.5,1.5v101
			C119.5,115.3,118.8,116,118,116z M11.5,113h105V15h-105V113z"/>
	</g>
	<g>
		<rect x="4" y="13.5" class="st2" width="16" height="16"/>
		<path class="st1" d="M20,31H4c-0.8,0-1.5-0.7-1.5-1.5v-16C2.5,12.7,3.2,12,4,12h16c0.8,0,1.5,0.7,1.5,1.5v16
			C21.5,30.3,20.8,31,20,31z M5.5,28h13V15h-13V28z"/>
	</g>
	<rect x="4" y="30.5" class="st2" width="16" height="16"/>
	<path class="st1" d="M20,48H4c-0.8,0-1.5-0.7-1.5-1.5v-16C2.5,29.7,3.2,29,4,29h16c0.8,0,1.5,0.7,1.5,1.5v16
		C21.5,47.3,20.8,48,20,48z M5.5,45h13V32h-13V45z"/>
	<rect x="4" y="47.5" class="st2" width="16" height="16"/>
	<path class="st1" d="M20,65H4c-0.8,0-1.5-0.7-1.5-1.5v-16C2.5,46.7,3.2,46,4,46h16c0.8,0,1.5,0.7,1.5,1.5v16
		C21.5,64.3,20.8,65,20,65z M5.5,62h13V49h-13V62z"/>
	<rect x="4" y="64.5" class="st2" width="16" height="16"/>
	<path class="st1" d="M20,82H4c-0.8,0-1.5-0.7-1.5-1.5v-16C2.5,63.7,3.2,63,4,63h16c0.8,0,1.5,0.7,1.5,1.5v16
		C21.5,81.3,20.8,82,20,82z M5.5,79h13V66h-13V79z"/>
	<g>
		<rect x="4" y="81.5" class="st2" width="16" height="16"/>
		<path class="st1" d="M20,99H4c-0.8,0-1.5-0.7-1.5-1.5v-16C2.5,80.7,3.2,80,4,80h16c0.8,0,1.5,0.7,1.5,1.5v16
			C21.5,98.3,20.8,99,20,99z M5.5,96h13V83h-13V96z"/>
	</g>
	<rect x="4" y="98.5" class="st2" width="16" height="16"/>
	<path class="st1" d="M20,116H4c-0.8,0-1.5-0.7-1.5-1.5v-16C2.5,97.7,3.2,97,4,97h16c0.8,0,1.5,0.7,1.5,1.5v16
		C21.5,115.3,20.8,116,20,116z M5.5,113h13v-13h-13V113z"/>
	<rect x="108" y="13.5" class="st2" width="16" height="16"/>
	<path class="st1" d="M124,31h-16c-0.8,0-1.5-0.7-1.5-1.5v-16c0-0.8,0.7-1.5,1.5-1.5h16c0.8,0,1.5,0.7,1.5,1.5v16
		C125.5,30.3,124.8,31,124,31z M109.5,28h13V15h-13V28z"/>
	<rect x="108" y="30.5" class="st2" width="16" height="16"/>
	<path class="st1" d="M124,48h-16c-0.8,0-1.5-0.7-1.5-1.5v-16c0-0.8,0.7-1.5,1.5-1.5h16c0.8,0,1.5,0.7,1.5,1.5v16
		C125.5,47.3,124.8,48,124,48z M109.5,45h13V32h-13V45z"/>
	<rect x="108" y="47.5" class="st2" width="16" height="16"/>
	<path class="st1" d="M124,65h-16c-0.8,0-1.5-0.7-1.5-1.5v-16c0-0.8,0.7-1.5,1.5-1.5h16c0.8,0,1.5,0.7,1.5,1.5v16
		C125.5,64.3,124.8,65,124,65z M109.5,62h13V49h-13V62z"/>
	<rect x="108" y="64.5" class="st2" width="16" height="16"/>
	<path class="st1" d="M124,82h-16c-0.8,0-1.5-0.7-1.5-1.5v-16c0-0.8,0.7-1.5,1.5-1.5h16c0.8,0,1.5,0.7,1.5,1.5v16
		C125.5,81.3,124.8,82,124,82z M109.5,79h13V66h-13V79z"/>
	<rect x="108" y="81.5" class="st2" width="16" height="16"/>
	<path class="st1" d="M124,99h-16c-0.8,0-1.5-0.7-1.5-1.5v-16c0-0.8,0.7-1.5,1.5-1.5h16c0.8,0,1.5,0.7,1.5,1.5v16
		C125.5,98.3,124.8,99,124,99z M109.5,96h13V83h-13V96z"/>
	<rect x="108" y="98.5" class="st2" width="16" height="16"/>
	<path class="st1" d="M124,116h-16c-0.8,0-1.5-0.7-1.5-1.5v-16c0-0.8,0.7-1.5,1.5-1.5h16c0.8,0,1.5,0.7,1.5,1.5v16
		C125.5,115.3,124.8,116,124,116z M109.5,113h13v-13h-13V113z"/>
	<g>
		<g>
			<g>
				<path class="st1" d="M53.6,84.5c1.9,3,0,7.6-4.3,10.3c-4.2,2.6-9.2,2.4-11.1-0.7c-1.9-3,0-7.6,4.2-10.3
					C46.7,81.2,51.7,81.5,53.6,84.5z"/>
				<path class="st1" d="M43.4,98.1c-2.8,0-5.2-1.2-6.4-3.2c-2.4-3.8-0.3-9.2,4.7-12.3c2.1-1.3,4.5-2,6.7-2c2.8,0,5.2,1.2,6.4,3.2
					c2.4,3.7,0.3,9.2-4.7,12.3C48,97.4,45.6,98.1,43.4,98.1z M48.4,83.6c-1.7,0-3.5,0.6-5.1,1.6c-3.5,2.2-5.2,5.9-3.8,8.2
					c0.7,1.1,2.1,1.8,3.9,1.8c1.7,0,3.5-0.6,5.1-1.6c3.5-2.2,5.2-5.9,3.8-8.2C51.6,84.2,50.2,83.6,48.4,83.6z"/>
			</g>
			<g>
				<line class="st3" x1="54" y1="46" x2="54" y2="85"/>
				<path class="st1" d="M54,86.5c-0.8,0-1.5-0.7-1.5-1.5V46c0-0.8,0.7-1.5,1.5-1.5s1.5,0.7,1.5,1.5v39C55.5,85.8,54.8,86.5,54,86.5
					z"/>
			</g>
		</g>
		<g>
			<g>
				<path class="st1" d="M89.6,74.1c1.9,3,0,7.6-4.3,10.2c-4.2,2.6-9.2,2.4-11.1-0.7c-1.9-3,0-7.6,4.3-10.2
					C82.7,70.8,87.7,71,89.6,74.1z"/>
				<path class="st1" d="M79.4,87.6c-2.8,0-5.2-1.2-6.4-3.2c-1.2-1.9-1.3-4.2-0.3-6.6c0.9-2.2,2.7-4.2,5-5.7
					c2.1-1.3,4.5-2.1,6.7-2.1c2.8,0,5.2,1.2,6.4,3.2c1.2,1.9,1.3,4.2,0.3,6.6c-0.9,2.2-2.7,4.2-5,5.7C84,86.9,81.6,87.6,79.4,87.6z
					 M84.4,73.1c-1.7,0-3.5,0.6-5.1,1.6c-1.8,1.1-3.2,2.6-3.8,4.3c-0.6,1.5-0.6,2.9,0,3.9c0.7,1.1,2.1,1.8,3.9,1.8
					c1.7,0,3.5-0.6,5.1-1.6c1.8-1.1,3.2-2.6,3.8-4.3c0.6-1.5,0.6-2.9-0.1-3.9C87.6,73.7,86.2,73.1,84.4,73.1z"/>
			</g>
			<g>
				<line class="st3" x1="90" y1="35" x2="90" y2="75"/>
				<path class="st1" d="M90,76.5c-0.8,0-1.5-0.7-1.5-1.5V35c0-0.8,0.7-1.5,1.5-1.5s1.5,0.7,1.5,1.5v40C91.5,75.8,90.8,76.5,90,76.5
					z"/>
			</g>
		</g>
		<polyline class="st4" points="54.1,45.3 90,31.4 90,37 		"/>
		<path class="st1" d="M54.1,46.8c-0.6,0-1.2-0.4-1.4-1c-0.3-0.8,0.1-1.6,0.9-1.9L89.5,30c0.5-0.2,1-0.1,1.4,0.2
			c0.4,0.3,0.7,0.7,0.7,1.2V37c0,0.8-0.7,1.5-1.5,1.5s-1.5-0.7-1.5-1.5v-3.4l-34,13.1C54.4,46.8,54.3,46.8,54.1,46.8z"/>
		<g>
			<polyline class="st4" points="54.1,55 90,42 90,47 			"/>
			<path class="st1" d="M54.1,56.5c-0.6,0-1.2-0.4-1.4-1c-0.3-0.8,0.1-1.6,0.9-1.9l35.9-13c0.5-0.2,1-0.1,1.4,0.2s0.6,0.7,0.6,1.2v5
				c0,0.8-0.7,1.5-1.5,1.5s-1.5-0.7-1.5-1.5v-2.8L54.6,56.4C54.4,56.5,54.3,56.5,54.1,56.5z"/>
		</g>
	</g>
	<g>
		<g>
			<path class="st1" d="M41.1,68.7c1.2,0,2.2,1,2.2,2.2s-1,2.2-2.2,2.2s-2.2-1-2.2-2.2C38.8,69.7,39.8,68.7,41.1,68.7z"/>
			<path class="st1" d="M41.1,73.6c-1.5,0-2.7-1.2-2.7-2.7s1.2-2.7,2.7-2.7s2.7,1.2,2.7,2.7S42.6,73.6,41.1,73.6z M41.1,69.2
				c-1,0-1.7,0.8-1.7,1.7c0,1,0.8,1.7,1.7,1.7s1.7-0.8,1.7-1.7S42,69.2,41.1,69.2z"/>
		</g>
		<g>
			<path class="st1" d="M41.1,53.2c1.2,0,2.2,1,2.2,2.2c0,1.3-1,2.3-2.2,2.3s-2.2-1-2.2-2.3C38.8,54.1,39.8,53.2,41.1,53.2z"/>
			<path class="st1" d="M41.1,58.1c-1.5,0-2.7-1.2-2.7-2.8c0-1.5,1.2-2.7,2.7-2.7s2.7,1.2,2.7,2.7C43.8,56.9,42.6,58.1,41.1,58.1z
				 M41.1,53.7c-1,0-1.7,0.8-1.7,1.7c0,1,0.8,1.8,1.7,1.8s1.7-0.8,1.7-1.8S42,53.7,41.1,53.7z"/>
		</g>
		<g>
			<path class="st1" d="M41.1,37.6c1.2,0,2.2,1,2.2,2.2s-1,2.2-2.2,2.2s-2.2-1-2.2-2.2C38.8,38.6,39.8,37.6,41.1,37.6z"/>
			<path class="st1" d="M41.1,42.6c-1.5,0-2.7-1.2-2.7-2.7s1.2-2.7,2.7-2.7s2.7,1.2,2.7,2.7C43.8,41.3,42.6,42.6,41.1,42.6z
				 M41.1,38.1c-1,0-1.7,0.8-1.7,1.7c0,1,0.8,1.7,1.7,1.7s1.7-0.8,1.7-1.7C42.8,38.9,42,38.1,41.1,38.1z"/>
		</g>
	</g>
</g>
</svg>
