<svg width="100%" height="100%" viewBox="0 0 243 152" version="1.1" xmlns="http://www.w3.org/2000/svg" xmlns:xlink="http://www.w3.org/1999/xlink">
	        <g id="nbc">
	            <path d="M131.716,73.4343 L82.196,149.9873 C76.422,151.1373 70.124,151.7123 63.302,151.7123 C42.949,151.7123 27.312,146.5053 16.387,136.0913 C5.462,125.6773 0,110.7043 0,91.1663 L0,0.3993 L40.533,0.3993 L40.533,88.0013 C40.533,98.5533 42.507,106.2103 46.455,110.9743 C50.403,115.7403 56.222,118.1223 63.914,118.1223 C72.15,118.1223 78.122,115.7573 81.833,111.0263 C85.542,106.2953 87.398,98.5533 87.398,87.7973 L87.398,5.1013 L131.716,73.4343 Z" id="Combined-Shape" fill="#222222"></path>
	            <path d="M213.344318,147.624678 L243.010243,147.624678 L193.278369,76.0227629 L239.515031,1.62467812 L194.476727,1.62467812 L169.111474,46.762845 L142.747589,1.62467812 L99.0075072,1.62467812 L144.545127,72.9270037 L96.1114744,147.624678 L123.844532,147.624678 C120.046699,146.398854 116.682713,143.076779 115.5929,139.2317 C114.1989,134.6027 115.5509,129.8217 118.6159,126.4477 C121.5759,123.3977 125.3809,122.1227 129.6099,122.5987 C125.6349,119.8937 123.9639,115.4167 124.5359,110.6137 C125.0649,106.4407 128.0869,102.3737 131.9559,100.7087 C136.3739,98.7187 141.9539,99.8007 145.4209,103.1517 C144.7019,100.7087 144.3229,97.2047 145.3159,94.6947 C146.4989,90.7367 150.3459,87.2117 154.2569,86.3897 C159.4789,85.2657 164.4469,87.2327 167.4479,91.7107 C168.0189,92.5547 168.3579,93.5067 168.8009,94.3937 C170.3019,90.1097 174.6349,86.5617 179.0329,86.1077 C183.5769,85.5237 187.8689,87.4707 190.7229,91.2997 C192.9429,94.4787 193.7029,99.2157 192.2659,103.0447 L192.4359,103.0447 C195.7319,100.0817 200.7219,98.9997 204.9709,100.6437 C209.0299,101.9847 212.4749,106.3107 213.0249,110.5717 C213.6369,115.2867 212.0309,119.4187 208.4589,122.4687 C213.8699,122.1437 219.0059,125.0197 221.2259,130.0607 C223.1719,134.4517 222.6019,140.3347 219.3029,143.9037 C217.9719,145.2447 216.5549,146.3687 214.9699,147.0397 C214.444343,147.272549 213.901946,147.466791 213.344318,147.624678 Z" id="Combined-Shape" fill="#222222"></path>
	            <path d="M177.99401,139.171923 L187.01611,117.895396 L191.296305,107.986671 C193.030552,104.784498 196.294812,102.743524 199.856696,102.686373 C203.270204,102.686373 206.295317,104.316035 208.214597,107.23765 C210.189736,110.159265 210.299709,114.935681 208.325442,117.895396 C207.440427,119.280869 206.130359,120.516537 204.783633,121.397178 L177.99401,139.171923 Z" id="Fill-1" fill="#0089CF" transform="translate(193.873107, 120.929148) rotate(1.000000) translate(-193.873107, -120.929148) "></path>
	            <path d="M174.616959,92.0116647 C171.558156,93.9669499 169.974695,97.2178754 170.207958,100.799046 C170.207958,100.799046 170.82091,104.69019 170.982662,106.206275 L174.868951,131.053177 L175.445296,134.359002 L188.367527,104.050816 C188.888536,102.826968 189.12265,101.420683 189.139677,100.049872 C189.086043,96.3411644 186.692975,92.7059388 183.255333,91.3173907 C180.610272,90.0749611 176.993001,90.4769982 174.616959,92.0116647 Z" id="Fill-3" fill="#635FAA" transform="translate(179.662540, 112.471012) rotate(2.000000) translate(-179.662540, -112.471012) "></path>
	            <path d="M159.843904,90.6283763 C156.238341,89.7043476 152.740016,90.8637817 150.259186,93.5998451 C147.938791,96.2094096 147.367136,100.450057 148.724078,103.674523 L161.344392,133.80892 L166.73416,101.191458 C166.804245,99.923955 166.85913,98.5291156 166.501952,97.3688437 C165.751285,94.270876 162.895544,91.371453 159.843904,90.6283763 Z" id="Fill-5" fill="#CE1041"></path>
	            <path d="M128.069792,112.256919 C128.451247,108.717049 131.266626,105.251336 134.626697,104.181618 C138.076976,103.112753 141.835683,103.960856 144.342634,106.523063 C145.395932,107.519477 146.049732,108.69915 146.593563,109.915474 L158.999447,139.709871 L131.502888,121.050762 C128.869645,118.783473 127.689196,115.760136 128.069792,112.256919 Z" id="Fill-7" fill="#F36F21"></path>
	            <path d="M120.026148,140.359528 C118.334618,137.098414 118.774842,132.46968 121.048003,129.577382 C123.524823,126.632144 127.110653,125.150702 130.721385,125.876865 C132.193248,126.113331 133.427656,126.741554 134.588248,127.46507 L162.2228,145.897952 L127.986656,145.890893 C124.43462,145.491195 121.696334,143.591525 120.026148,140.359528 Z" id="Fill-9" fill="#FDB813"></path>
	            <path d="M217.864052,139.549136 C219.46211,136.468229 219.046212,132.095275 216.899505,129.362803 C214.558712,126.580318 211.171032,125.180739 207.758986,125.866774 C206.369298,126.090173 205.203103,126.683681 204.105804,127.367216 L178,144.781509 L210.343437,144.774841 C213.700869,144.397229 216.28616,142.602534 217.864052,139.549136 Z" id="Fill-12" fill="#0CB14B"></path>
	            <path d="M169.814144,98.0889602 L174.020273,98.1319706 C174.312899,98.2795746 174.938547,98.4271786 174.812432,98.8709682 L172.666508,100.139776 C171.250671,101.112399 170.52354,102.592349 170.710742,104.346979 C170.710742,104.346979 175.220375,132.65919 175.862524,137.081515 C176.504673,141.50384 174.020273,145.76975 174.020273,145.76975 L163.038183,145.76975 C158.473094,142.125517 165.663902,112.610492 166.352785,108.583874 C167.500659,102.475392 167.261103,97.2493696 169.814144,98.0889602 Z" id="Fill-3" fill="#FFFFFF"></path>
	        </g>
		</svg>