<?xml version="1.0" encoding="UTF-8"?>
<svg width="23px" height="14px" viewBox="0 0 23 14" version="1.1" xmlns="http://www.w3.org/2000/svg" xmlns:xlink="http://www.w3.org/1999/xlink">
    <!-- Generator: Sketch 43.1 (39012) - http://www.bohemiancoding.com/sketch -->
    <title>nbc-peacock</title>
    <desc>Created with Sketch.</desc>
    <defs></defs>
    <g id="Page-1" stroke="none" stroke-width="1" fill="none" fill-rule="evenodd">
        <g id="nbc-peacock" fill-rule="nonzero">
            <path d="M21.1,13.6 C20.7,13.8 20.3,13.8 19.9,13.8 L2.4,13.8 C1.4,13.7 0.4,12.9 0.2,11.9 C-0.1,10.9 0.2,9.9 0.8,9.2 C1.4,8.6 2.2,8.3 3.1,8.4 C2.2,7.9 1.9,6.9 2,5.9 C2.1,5 2.8,4.2 3.6,3.8 C4.5,3.4 5.7,3.6 6.4,4.3 C6.2,3.8 6.2,3 6.4,2.5 C6.6,1.7 7.5,1 8.3,0.8 C9.4,0.6 10.5,1 11.1,1.9 C11.2,2.1 11.3,2.3 11.4,2.5 C11.7,1.6 12.6,0.8 13.6,0.7 C14.6,0.6 15.5,1 16.1,1.8 C16.6,2.5 16.7,3.5 16.4,4.3 L16.4,4.3 C17,3.7 18.1,3.4 19,3.8 C19.9,4.1 20.6,5 20.7,5.9 C20.8,6.9 20.5,7.8 19.7,8.4 C20.8,8.3 21.9,8.9 22.4,10 C22.8,10.9 22.7,12.2 22,12.9 C21.7,13.2 21.4,13.5 21.1,13.6" id="XMLID_7_" fill="#FFFFF7"></path>
            <path d="M19.3,8.4 L12.8,12.7 L15,7.6 L16,5.2 C16.4,4.4 17.2,3.9 18.1,3.9 C18.9,3.9 19.7,4.3 20.1,5 C20.6,5.7 20.6,6.9 20.1,7.6 C19.9,7.9 19.6,8.2 19.3,8.4" id="XMLID_6_" fill="#1589CA"></path>
            <path d="M16,4.3 L12.8,11.9 L12.7,11.1 L11.7,4.9 C11.7,4.5 11.8,4.2 12.1,4 L12.6,3.7 C12.6,3.6 12.5,3.6 12.4,3.5 L11.5,3.5 C11.4,2.6 11.8,1.8 12.6,1.3 C13.2,0.9 14.1,0.8 14.7,1.1 C15.6,1.4 16.1,2.4 16.2,3.3 C16.2,3.7 16.2,4 16,4.3" id="XMLID_5_" fill="#6360AB"></path>
            <path d="M9.9,11.9 L6.7,4.3 C6.4,3.5 6.5,2.5 7.1,1.8 C7.7,1.1 8.6,0.8 9.5,1.1 C10.3,1.3 11,2 11.2,2.8 C11.3,3.1 11.3,3.4 11.3,3.8 L9.9,11.9" id="XMLID_4_" fill="#CF1F44"></path>
            <path d="M3.1,8.2 C2.5,7.6 2.2,6.8 2.3,6 C2.4,5.1 3.1,4.3 3.9,4 C4.7,3.7 5.7,3.9 6.3,4.6 C6.6,4.8 6.7,5.1 6.9,5.4 L10,12.8 L3.1,8.2" id="XMLID_3_" fill="#F37024"></path>
            <path d="M2.4,13.6 C1.6,13.5 0.9,13 0.5,12.3 C0.1,11.5 0.2,10.4 0.7,9.7 C1.3,9 2.1,8.6 3,8.8 C3.4,8.8 3.7,9 4,9.1 L10.6,13.5 L2.4,13.6" id="XMLID_2_" fill="#FCB717"></path>
            <path d="M20.2,13.6 C21,13.5 21.7,13 22.1,12.3 C22.5,11.5 22.4,10.4 21.9,9.7 C21.3,9 20.5,8.6 19.6,8.8 C19.3,8.9 19,9 18.7,9.2 L12.1,13.6 L20.2,13.6" id="XMLID_1_" fill="#12B24B"></path>
        </g>
    </g>
</svg>